<svg width="193" height="204" viewBox="0 0 193 204" fill="none" xmlns="http://www.w3.org/2000/svg">
<g id="Component 1" clip-path="url(#clip0_1083_103477)">
<path id="Path 4" opacity="0.1" d="M153.017 193.001C156.385 190.3 159.381 187.165 161.927 183.679C173.682 167.528 170.128 148.529 166.329 130.36C161.762 108.529 163.044 85.3888 156.862 63.9432C152.194 47.7474 141.251 27.9389 121.38 31.2981C111.881 32.904 105.277 40.4543 98.0751 46.1397C89.5907 52.8433 78.8942 58.0136 68.7311 61.5944C51.4108 67.6971 32.0308 67.2088 15.8455 76.6542C-3.531 87.9644 -3.06522 112.178 6.19838 130.127C20.9968 158.79 60.5523 147.637 81.2699 168.504C91.9602 179.273 97.8924 195.536 111.81 201.585C125.366 207.478 142.069 201.801 153.017 193.001Z" fill="#4C246D"/>
<g id="Group 12">
<g id="Group 10">
<path id="Rectangle 6" d="M135.201 49.3398H134.58V53.3223H135.201V49.3398Z" fill="#646D82"/>
</g>
<g id="Group 11">
<path id="Rectangle 7" d="M136.882 51.0195H132.9V51.6403H136.882V51.0195Z" fill="#646D82"/>
</g>
</g>
<g id="_x35_">
<g id="Group 46142">
<g id="Group 46098">
<g id="Group 46088">
<g id="Group 46087">
<path id="Path 40805" d="M164.378 119.262L69.1586 171.665C66.6518 173.045 63.6996 173.372 60.9515 172.575C58.2034 171.778 55.8845 169.922 54.5048 167.415L25.4872 114.692C24.1077 112.185 23.7804 109.233 24.5774 106.485C25.3744 103.737 27.2305 101.418 29.7372 100.038L124.957 47.6337C127.464 46.2541 130.416 45.9269 133.165 46.7239C135.913 47.5209 138.232 49.377 139.611 51.8837L168.628 104.608C170.008 107.115 170.335 110.067 169.538 112.815C168.741 115.563 166.885 117.882 164.378 119.262Z" fill="#265D9F"/>
</g>
</g>
<g id="Group 46090">
<g id="Group 46089">
<path id="Path 40806" d="M162.297 115.485L67.0776 167.89C64.5708 169.269 61.6187 169.596 58.8706 168.799C56.1225 168.002 53.8035 166.146 52.4238 163.64L23.4071 110.915C22.0276 108.408 21.7003 105.456 22.4973 102.708C23.2944 99.9599 25.1504 97.641 27.6571 96.2613L122.877 43.8562C125.383 42.4767 128.336 42.1495 131.084 42.9467C133.832 43.7439 136.151 45.6001 137.53 48.107L166.547 100.832C167.927 103.338 168.254 106.291 167.457 109.039C166.66 111.787 164.804 114.106 162.297 115.485Z" fill="#3A81D7"/>
</g>
</g>
<g id="Group 46093">
<g id="Group 46092">
<g id="Group 46091">
<path id="Path 40807" d="M122.877 43.8618L27.6578 96.2635C25.1509 97.643 23.2947 99.9619 22.4975 102.71C21.7003 105.458 22.0274 108.41 23.4069 110.917L52.4236 163.642C52.4236 163.642 25.3861 111.933 132.504 43.4843C130.98 42.7949 129.317 42.4701 127.646 42.5356C125.975 42.6011 124.342 43.0552 122.877 43.8618Z" fill="#265D9F"/>
</g>
</g>
</g>
<g id="Group 46095">
<g id="Group 46094">
<path id="Path 40808" d="M31.9354 117.383L35.5793 124.004C35.7978 124.401 36.0922 124.75 36.4459 125.034C36.7996 125.317 37.2056 125.527 37.6407 125.653C38.0758 125.78 38.5315 125.819 38.9818 125.769C39.432 125.719 39.868 125.581 40.2648 125.362L140.714 70.0791C141.516 69.638 142.109 68.8966 142.364 68.0181C142.618 67.1396 142.514 66.1959 142.073 65.3945L138.429 58.7741C137.988 57.9728 137.246 57.3795 136.368 57.1247C135.489 56.87 134.545 56.9747 133.744 57.4157L33.2946 112.698C32.8977 112.916 32.5476 113.21 32.2645 113.564C31.9813 113.918 31.7706 114.324 31.6444 114.759C31.5182 115.194 31.4789 115.65 31.5288 116.1C31.5788 116.55 31.7169 116.986 31.9354 117.383Z" fill="#1D2943"/>
</g>
</g>
<g id="Group 46097">
<g id="Group 46096">
<path id="Path 40809" d="M30.9265 115.547L34.5705 122.168C34.7888 122.565 35.0831 122.915 35.4367 123.198C35.7902 123.481 36.1961 123.692 36.6311 123.818C37.0661 123.944 37.5218 123.984 37.972 123.934C38.4222 123.884 38.8582 123.746 39.2551 123.528L139.705 68.2432C140.507 67.802 141.1 67.0607 141.355 66.1822C141.609 65.3037 141.505 64.3599 141.064 63.5586L137.42 56.9381C136.979 56.1368 136.237 55.5435 135.359 55.2888C134.48 55.0341 133.537 55.1387 132.735 55.5798L32.2858 110.862C31.4845 111.303 30.8912 112.044 30.6365 112.923C30.3817 113.801 30.4864 114.745 30.9274 115.546L30.9265 115.547Z" fill="#4C5C75"/>
</g>
</g>
</g>
<g id="Group 46100">
<g id="Group 46099">
<path id="Path 40810" d="M147.162 185.538H38.4746C35.6135 185.538 32.8695 184.402 30.8462 182.379C28.8229 180.356 27.686 177.612 27.6855 174.751V114.569C27.6858 111.708 28.8226 108.964 30.8459 106.941C32.8692 104.918 35.6133 103.781 38.4746 103.781H147.162C150.023 103.781 152.767 104.918 154.791 106.941C156.814 108.965 157.951 111.709 157.951 114.57V174.751C157.95 177.612 156.813 180.356 154.79 182.379C152.767 184.402 150.023 185.538 147.162 185.538Z" fill="#4C246D"/>
</g>
</g>
<g id="Group 46102">
<g id="Group 46101">
<path id="Path 40811" d="M38.4727 181.227H147.16C148.577 181.227 149.98 180.948 151.289 180.406C152.598 179.864 153.787 179.069 154.789 178.067C155.791 177.065 156.585 175.876 157.128 174.567C157.67 173.258 157.949 171.855 157.949 170.438V110.257C157.949 107.396 156.812 104.652 154.788 102.628C152.765 100.605 150.021 99.4687 147.16 99.4688H38.4727C35.6114 99.4687 32.8673 100.605 30.8439 102.628C28.8206 104.652 27.6838 107.396 27.6836 110.257V170.438C27.6836 173.3 28.8203 176.044 30.8436 178.067C32.867 180.091 35.6112 181.227 38.4727 181.227Z" fill="#835EA1"/>
</g>
</g>
<g id="Group 46105">
<g id="Group 46104">
<g id="Group 46103">
<path id="Path 40812" d="M38.4737 99.4696H147.161C148.578 99.4696 149.981 99.7487 151.29 100.291C152.599 100.833 153.788 101.628 154.79 102.63C155.792 103.632 156.586 104.821 157.129 106.13C157.671 107.439 157.95 108.842 157.95 110.259V170.44C157.95 170.44 156.707 112.102 29.8594 103.782C30.8613 102.443 32.1616 101.356 33.6569 100.607C35.1522 99.8588 36.8014 99.4689 38.4737 99.4688V99.4696Z" fill="#4C246D"/>
</g>
</g>
</g>
<g id="Group 46126">
<g id="Group 46110">
<g id="Group 46107">
<g id="Group 46106">
<path id="Path 40813" d="M149.497 161.866V163.541H149.475C149.478 164.085 149.374 164.625 149.169 165.129C148.964 165.633 148.661 166.092 148.278 166.479C147.895 166.866 147.44 167.174 146.938 167.385C146.436 167.595 145.897 167.705 145.353 167.707H134.406C133.862 167.705 133.323 167.595 132.822 167.384C132.32 167.173 131.864 166.865 131.482 166.478C131.099 166.091 130.796 165.633 130.591 165.129C130.385 164.624 130.281 164.085 130.284 163.541H130.262V161.866H130.529C130.894 161.044 131.491 160.346 132.247 159.859C133.003 159.372 133.886 159.117 134.785 159.125H144.974C145.873 159.117 146.755 159.372 147.512 159.859C148.268 160.346 148.865 161.044 149.23 161.866H149.497Z" fill="#E3E7F0"/>
</g>
</g>
<g id="Group 46109">
<g id="Group 46108">
<path id="Path 40814" d="M145.341 166.044H134.76C133.717 166.076 132.697 165.735 131.882 165.083C131.068 164.431 130.512 163.511 130.314 162.486C130.227 161.894 130.268 161.29 130.435 160.715C130.603 160.14 130.892 159.608 131.283 159.154C131.674 158.701 132.158 158.337 132.703 158.088C133.247 157.839 133.839 157.709 134.438 157.709H144.977C146.079 157.676 147.154 158.058 147.987 158.78C148.821 159.501 149.353 160.51 149.479 161.605C149.518 162.173 149.439 162.742 149.249 163.278C149.058 163.814 148.76 164.305 148.371 164.721C147.983 165.137 147.514 165.469 146.992 165.696C146.471 165.923 145.908 166.041 145.339 166.042L145.341 166.044Z" fill="white"/>
</g>
</g>
</g>
<g id="Group 46115">
<g id="Group 46112">
<g id="Group 46111">
<path id="Path 40815" d="M118.123 161.866V163.541H118.1C118.104 164.085 118 164.625 117.795 165.129C117.589 165.633 117.287 166.092 116.904 166.479C116.521 166.866 116.065 167.174 115.564 167.385C115.062 167.595 114.523 167.705 113.979 167.707H103.031C102.487 167.705 101.948 167.595 101.447 167.384C100.945 167.173 100.489 166.865 100.107 166.478C99.7238 166.091 99.4211 165.633 99.2156 165.129C99.0101 164.624 98.906 164.085 98.9092 163.541H98.8867V161.866H99.1542C99.5186 161.044 100.116 160.346 100.872 159.859C101.628 159.372 102.511 159.117 103.41 159.125H113.599C114.499 159.117 115.381 159.372 116.137 159.859C116.894 160.346 117.491 161.044 117.855 161.866H118.123Z" fill="#E3E7F0"/>
</g>
</g>
<g id="Group 46114">
<g id="Group 46113">
<path id="Path 40816" d="M113.967 166.044H103.385C102.342 166.076 101.322 165.735 100.507 165.083C99.6926 164.431 99.1367 163.511 98.9389 162.486C98.8518 161.894 98.8932 161.29 99.0604 160.715C99.2277 160.14 99.5167 159.608 99.9079 159.154C100.299 158.701 100.783 158.337 101.328 158.088C101.872 157.839 102.464 157.709 103.063 157.709H113.603C114.705 157.676 115.779 158.058 116.613 158.78C117.447 159.501 117.979 160.51 118.105 161.605C118.144 162.173 118.065 162.742 117.875 163.278C117.684 163.814 117.385 164.305 116.997 164.721C116.609 165.137 116.14 165.469 115.618 165.696C115.097 165.923 114.534 166.041 113.965 166.042L113.967 166.044Z" fill="white"/>
</g>
</g>
</g>
<g id="Group 46120">
<g id="Group 46117">
<g id="Group 46116">
<path id="Path 40817" d="M86.7491 161.866V163.541H86.7265C86.7301 164.085 86.6263 164.624 86.4212 165.128C86.2161 165.632 85.9136 166.091 85.5311 166.478C85.1486 166.865 84.6936 167.173 84.192 167.384C83.6905 167.595 83.1523 167.705 82.6081 167.707H71.658C71.1137 167.705 70.5753 167.595 70.0735 167.384C69.5717 167.173 69.1164 166.865 68.7336 166.478C68.3508 166.091 68.048 165.633 67.8426 165.129C67.6371 164.624 67.533 164.085 67.5362 163.541H67.5137V161.866H67.7812C68.1457 161.044 68.7429 160.346 69.4992 159.859C70.2554 159.372 71.1377 159.117 72.0372 159.125H82.2255C83.125 159.117 84.0073 159.372 84.7636 159.859C85.5199 160.346 86.1171 161.044 86.4815 161.866H86.7491Z" fill="#E3E7F0"/>
</g>
</g>
<g id="Group 46119">
<g id="Group 46118">
<path id="Path 40818" d="M82.5928 166.044H72.0115C70.9687 166.076 69.9487 165.735 69.1341 165.083C68.3195 164.431 67.7636 163.511 67.5659 162.486C67.4787 161.894 67.5202 161.29 67.6874 160.715C67.8546 160.14 68.1437 159.608 68.5349 159.154C68.9261 158.701 69.4104 158.337 69.9547 158.088C70.4991 157.839 71.0907 157.709 71.6895 157.709H82.2292C83.3313 157.676 84.4055 158.058 85.2392 158.78C86.0729 159.501 86.6054 160.51 86.7311 161.605C86.7697 162.173 86.6912 162.742 86.5007 163.278C86.3101 163.814 86.0116 164.305 85.6234 164.721C85.2353 165.137 84.7659 165.469 84.2443 165.696C83.7227 165.923 83.16 166.041 82.5911 166.042L82.5928 166.044Z" fill="white"/>
</g>
</g>
</g>
<g id="Group 46125">
<g id="Group 46122">
<g id="Group 46121">
<path id="Path 40819" d="M55.3749 161.866V163.541H55.3524C55.3559 164.085 55.2521 164.625 55.0467 165.129C54.8414 165.633 54.5386 166.092 54.1558 166.479C53.7729 166.866 53.3175 167.174 52.8155 167.385C52.3136 167.595 51.775 167.705 51.2305 167.707H40.283C39.7387 167.705 39.2003 167.595 38.6985 167.384C38.1967 167.173 37.7414 166.865 37.3586 166.478C36.9758 166.091 36.673 165.633 36.4676 165.129C36.2621 164.624 36.158 164.085 36.1612 163.541H36.1387V161.866H36.4088C36.7732 161.044 37.3704 160.346 38.1267 159.859C38.883 159.372 39.7653 159.117 40.6648 159.125H50.8513C51.7511 159.117 52.6338 159.371 53.3904 159.859C54.1471 160.346 54.7445 161.044 55.1091 161.866H55.3749Z" fill="#E3E7F0"/>
</g>
</g>
<g id="Group 46124">
<g id="Group 46123">
<path id="Path 40820" d="M51.2187 166.044H40.6365C39.5937 166.076 38.5737 165.735 37.7591 165.083C36.9445 164.431 36.3886 163.511 36.1909 162.486C36.1037 161.894 36.1452 161.29 36.3124 160.715C36.4796 160.14 36.7687 159.608 37.1599 159.154C37.5511 158.701 38.0354 158.337 38.5797 158.088C39.1241 157.839 39.7157 157.709 40.3145 157.709H50.8551C51.9571 157.676 53.0313 158.058 53.8651 158.78C54.6988 159.501 55.2312 160.51 55.357 161.605C55.3959 162.173 55.3178 162.742 55.1275 163.278C54.9372 163.815 54.6389 164.306 54.2509 164.722C53.8629 165.139 53.3936 165.471 52.872 165.698C52.3504 165.926 51.7877 166.043 51.2187 166.044Z" fill="white"/>
</g>
</g>
</g>
</g>
<g id="Group 46131">
<g id="Group 46128">
<g id="Group 46127">
<path id="Path 40821" d="M36.1465 118.481V128.548C36.1465 129.152 36.2654 129.749 36.4963 130.307C36.7273 130.864 37.0658 131.371 37.4925 131.797C37.9192 132.224 38.4258 132.563 38.9834 132.793C39.5409 133.024 40.1385 133.143 40.7419 133.143H59.592C60.8106 133.143 61.9792 132.659 62.8409 131.797C63.7025 130.936 64.1866 129.767 64.1866 128.548V118.481C64.1866 117.878 64.0678 117.28 63.8369 116.723C63.606 116.166 63.2675 115.659 62.8409 115.232C62.4143 114.806 61.9077 114.467 61.3503 114.236C60.7929 114.006 60.1954 113.887 59.592 113.887H40.7419C40.1386 113.887 39.5411 114.006 38.9837 114.236C38.4262 114.467 37.9197 114.806 37.4931 115.232C37.0664 115.659 36.728 116.166 36.4971 116.723C36.2662 117.28 36.1474 117.878 36.1474 118.481H36.1465Z" fill="#FEBC1F"/>
</g>
</g>
<g id="Group 46130">
<g id="Group 46129">
<path id="Path 40822" d="M36.1465 116.911V126.978C36.1466 127.581 36.2656 128.179 36.4966 128.736C36.7276 129.294 37.0661 129.8 37.4928 130.227C37.9195 130.653 38.4261 130.991 38.9836 131.222C39.5411 131.453 40.1386 131.572 40.7419 131.572H59.592C60.8106 131.572 61.9792 131.088 62.8409 130.226C63.7025 129.364 64.1866 128.196 64.1866 126.977V116.911C64.1866 115.692 63.7025 114.524 62.8409 113.662C61.9792 112.8 60.8106 112.316 59.592 112.316H40.7419C39.5234 112.316 38.3547 112.8 37.4931 113.662C36.6314 114.524 36.1474 115.692 36.1474 116.911H36.1465Z" fill="#FFD475"/>
</g>
</g>
</g>
<g id="Group 46134">
<g id="Group 46133">
<g id="Group 46132">
<path id="Path 40823" d="M49.6783 120.859V112.316H47.4948V120.859H36.1465V123.041H42.3557V131.573H44.5383V123.041H54.3655V131.573H56.548V123.041H64.1875V120.859H49.6783Z" fill="#FEBC1F"/>
</g>
</g>
</g>
<g id="Group 46141">
<g id="Group 46137">
<g id="Group 46136">
<g id="Group 46135">
<path id="Path 40824" d="M147.504 128.394H135.217C134.716 128.409 134.226 128.245 133.835 127.932C133.444 127.619 133.177 127.177 133.082 126.685C133.04 126.401 133.06 126.11 133.14 125.834C133.221 125.558 133.36 125.303 133.548 125.085C133.736 124.868 133.968 124.693 134.23 124.573C134.491 124.454 134.775 124.392 135.063 124.392H147.33C147.86 124.375 148.377 124.559 148.778 124.905C149.179 125.252 149.435 125.737 149.495 126.263C149.514 126.536 149.477 126.81 149.385 127.068C149.294 127.326 149.15 127.562 148.963 127.762C148.776 127.962 148.55 128.122 148.299 128.23C148.048 128.339 147.778 128.395 147.504 128.394Z" fill="white"/>
</g>
</g>
</g>
<g id="Group 46140">
<g id="Group 46139">
<g id="Group 46138">
<path id="Path 40825" d="M147.504 119.828H125.93C125.429 119.843 124.939 119.679 124.548 119.366C124.157 119.053 123.89 118.611 123.795 118.119C123.753 117.834 123.773 117.544 123.853 117.268C123.934 116.992 124.073 116.736 124.26 116.519C124.448 116.301 124.681 116.127 124.942 116.007C125.204 115.887 125.488 115.825 125.776 115.825H147.333C147.863 115.809 148.379 115.992 148.78 116.339C149.181 116.686 149.437 117.17 149.497 117.697C149.516 117.97 149.479 118.244 149.388 118.502C149.296 118.76 149.152 118.997 148.965 119.197C148.778 119.397 148.552 119.556 148.3 119.664C148.049 119.773 147.778 119.829 147.504 119.828Z" fill="white"/>
</g>
</g>
</g>
</g>
</g>
<g id="Group 46144">
<g id="Group 46143">
<path id="Path 40826" d="M144.225 73.1758C149.35 79.7378 153.572 86.9576 156.778 94.6422C151.652 88.0804 147.43 80.8605 144.225 73.1758Z" fill="white"/>
</g>
</g>
<g id="Group 46146">
<g id="Group 46145">
<path id="Path 40827" d="M48.5156 94.6342C55.9749 88.9168 64.0867 84.1053 72.6806 80.3008C65.2213 86.0181 57.1095 90.8296 48.5156 94.6342Z" fill="white"/>
</g>
</g>
<g id="Group 46148">
<g id="Group 46147">
<path id="Path 40828" d="M110.326 175.81C119.658 174.699 129.089 174.699 138.421 175.81C129.089 176.922 119.658 176.922 110.326 175.81Z" fill="white"/>
</g>
</g>
</g>
</g>
<defs>
<clipPath id="clip0_1083_103477">
<rect width="192.556" height="204" fill="white"/>
</clipPath>
</defs>
</svg>
