<svg width="193" height="204" viewBox="0 0 193 204" fill="none" xmlns="http://www.w3.org/2000/svg">
<g id="Component 1" clip-path="url(#clip0_1663_4407)">
<path id="Path 4" opacity="0.1" d="M153.017 193.001C156.385 190.3 159.381 187.165 161.927 183.679C173.682 167.528 170.128 148.529 166.329 130.36C161.762 108.529 163.044 85.3888 156.862 63.9432C152.194 47.7474 141.251 27.9389 121.38 31.2981C111.881 32.904 105.277 40.4543 98.0751 46.1397C89.5907 52.8433 78.8942 58.0136 68.7311 61.5944C51.4108 67.6971 32.0308 67.2088 15.8455 76.6542C-3.531 87.9644 -3.06522 112.178 6.19838 130.127C20.9968 158.79 60.5523 147.637 81.2699 168.504C91.9602 179.273 97.8924 195.536 111.81 201.585C125.366 207.478 142.069 201.801 153.017 193.001Z" fill="#4C246D"/>
<g id="Group 46085">
<g id="Group 46081">
<path id="Path 40778" d="M57.6482 68.6449L39.2988 62.1328V76.5896L57.6482 70.0775C57.7961 70.0249 57.924 69.9278 58.0145 69.7995C58.105 69.6713 58.1535 69.5182 58.1535 69.3612C58.1535 69.2043 58.105 69.0511 58.0145 68.9229C57.924 68.7946 57.7961 68.6975 57.6482 68.6449Z" fill="#4C246D"/>
<path id="Path 40779" d="M172.005 68.6449L153.655 62.1328V76.5896L172.005 70.0775C172.153 70.0249 172.28 69.9278 172.371 69.7995C172.461 69.6713 172.51 69.5182 172.51 69.3612C172.51 69.2043 172.461 69.0511 172.371 68.9229C172.28 68.7946 172.153 68.6975 172.005 68.6449Z" fill="#4C246D"/>
<path id="Path 40780" d="M114.813 62.724L96.4639 56.2129V70.6678L114.813 64.1557C114.961 64.1033 115.089 64.0063 115.18 63.8782C115.27 63.75 115.319 63.5969 115.319 63.4399C115.319 63.2829 115.27 63.1298 115.18 63.0016C115.089 62.8734 114.961 62.7765 114.813 62.724Z" fill="#4C246D"/>
</g>
<g id="Group 46082">
<path id="Path 40781" d="M39.2988 97.2169C38.6557 97.2169 38.0389 96.9614 37.5842 96.5067C37.1295 96.0519 36.874 95.4352 36.874 94.7921V62.3466C36.874 61.7036 37.1295 61.0868 37.5842 60.6321C38.0389 60.1773 38.6557 59.9219 39.2988 59.9219C39.9419 59.9219 40.5586 60.1773 41.0133 60.6321C41.4681 61.0868 41.7235 61.7036 41.7235 62.3466V94.7921C41.7235 95.4352 41.4681 96.0519 41.0133 96.5067C40.5586 96.9614 39.9419 97.2169 39.2988 97.2169Z" fill="#CCDFED"/>
<path id="Path 40782" d="M153.655 96.6649C153.012 96.6649 152.395 96.4095 151.941 95.9548C151.486 95.5 151.23 94.8833 151.23 94.2402V62.3427C151.23 61.6996 151.486 61.0829 151.941 60.6282C152.395 60.1734 153.012 59.918 153.655 59.918C154.298 59.918 154.915 60.1734 155.37 60.6282C155.825 61.0829 156.08 61.6996 156.08 62.3427V94.2402C156.08 94.8833 155.825 95.5 155.37 95.9548C154.915 96.4095 154.298 96.6649 153.655 96.6649Z" fill="#CCDFED"/>
<path id="Path 40783" d="M96.4638 97.2164C95.8207 97.2164 95.204 96.9609 94.7493 96.5062C94.2945 96.0515 94.0391 95.4347 94.0391 94.7916V56.4248C94.0391 55.7817 94.2945 55.1649 94.7493 54.7102C95.204 54.2555 95.8207 54 96.4638 54C97.1069 54 97.7237 54.2555 98.1784 54.7102C98.6331 55.1649 98.8886 55.7817 98.8886 56.4248V94.7916C98.8886 95.4347 98.6331 96.0515 98.1784 96.5062C97.7237 96.9609 97.1069 97.2164 96.4638 97.2164Z" fill="#CCDFED"/>
</g>
<path id="Ellipse 1030" d="M96.4636 179.557C140.765 179.557 176.679 171.393 176.679 161.323C176.679 151.253 140.765 143.09 96.4636 143.09C52.1618 143.09 16.248 151.253 16.248 161.323C16.248 171.393 52.1618 179.557 96.4636 179.557Z" fill="#835EA1"/>
<path id="Path 40784" d="M96.4642 143.09C94.0534 143.09 91.6685 143.114 89.3096 143.163C130.259 143.986 162.371 151.802 162.371 161.324C162.371 170.846 130.259 178.664 89.3096 179.485C91.6673 179.533 94.0522 179.557 96.4642 179.559C140.766 179.559 176.681 171.399 176.681 161.325C176.681 151.252 140.767 143.09 96.4642 143.09Z" fill="#4C246D"/>
<path id="Path 40785" d="M176.928 103.729H16L28.7655 159.106H28.7961C29.8058 164.452 63.9973 169.705 96.4613 169.705C128.925 169.705 164.41 164.452 165.42 159.106H165.453L176.928 103.729Z" fill="#E8E7D9"/>
<path id="Path 40786" d="M162.218 103.729L149.648 165.226C158.921 163.431 165.017 161.275 165.427 159.106H165.46L176.932 103.733L162.218 103.729Z" fill="#D1CFBD"/>
<path id="Ellipse 1031" d="M96.4641 123.716C140.903 123.716 176.928 114.768 176.928 103.729C176.928 92.6906 140.903 83.7422 96.4641 83.7422C52.025 83.7422 16 92.6906 16 103.729C16 114.768 52.025 123.716 96.4641 123.716Z" fill="#F3CA1E"/>
<path id="Path 40787" d="M96.4644 83.7422C94.0535 83.7422 91.6696 83.7688 89.3125 83.8219C130.401 84.7214 162.625 93.2892 162.625 103.728C162.625 114.167 130.401 122.737 89.3125 123.634C91.6696 123.686 94.0535 123.712 96.4644 123.714C140.904 123.714 176.928 114.766 176.928 103.728C176.928 92.6902 140.904 83.7422 96.4644 83.7422Z" fill="#C9A81D"/>
<path id="Path 40788" d="M96.4642 111.088C74.3687 111.088 56.4561 115.539 56.4561 121.025C56.4561 121.041 56.4561 121.057 56.4561 121.073C69.7135 122.882 83.0811 123.765 96.4614 123.714C109.841 123.765 123.209 122.882 136.466 121.072C136.466 121.056 136.466 121.04 136.466 121.024C136.472 115.537 118.56 111.088 96.4642 111.088Z" fill="#835EA1"/>
<path id="Path 40789" d="M108.421 147.973H84.5058C83.59 147.973 82.7117 148.336 82.0641 148.984C81.4165 149.632 81.0527 150.51 81.0527 151.426V169.322C85.6176 169.54 90.2585 169.668 94.8762 169.693C95.4038 169.693 95.9323 169.693 96.4636 169.693C96.9953 169.693 97.525 169.693 98.053 169.693C102.647 169.668 107.289 169.541 111.875 169.326V151.426C111.874 150.51 111.51 149.632 110.863 148.984C110.215 148.337 109.337 147.973 108.421 147.973Z" fill="#F3CA1E"/>
<path id="Path 40790" d="M98.8886 147.973H94.0391V169.686C94.3172 169.686 94.5954 169.694 94.8736 169.695C95.4012 169.695 95.9297 169.695 96.461 169.695C96.9927 169.695 97.5224 169.695 98.0503 169.695C98.3285 169.695 98.6067 169.689 98.8849 169.686V147.973H98.8886Z" fill="#C9A81D"/>
<g id="Group 46083">
<path id="Path 40791" d="M28.8267 130.655C28.5293 130.655 28.2344 130.6 27.9569 130.493C26.2026 129.818 24.5836 129.109 23.1473 128.383C22.5796 128.09 22.1508 127.584 21.9539 126.977C21.757 126.369 21.8081 125.708 22.0959 125.137C22.3838 124.567 22.8852 124.133 23.4912 123.93C24.0971 123.727 24.7586 123.772 25.3319 124.054C26.6245 124.703 28.0932 125.352 29.6974 125.966C30.2261 126.169 30.6671 126.551 30.9437 127.045C31.2203 127.54 31.3151 128.115 31.2117 128.672C31.1082 129.229 30.8131 129.732 30.3774 130.094C29.9418 130.456 29.3931 130.655 28.8267 130.655Z" fill="white"/>
<path id="Path 40792" d="M96.4636 139.812C94.9392 139.812 93.3963 139.801 91.8784 139.78C91.2353 139.771 90.6221 139.507 90.1736 139.046C89.7251 138.585 89.4782 137.965 89.487 137.322C89.4959 136.679 89.7598 136.066 90.2208 135.617C90.6818 135.169 91.3021 134.922 91.9452 134.931C94.9374 134.972 97.989 134.972 100.981 134.931C101.624 134.922 102.245 135.169 102.706 135.617C103.167 136.066 103.431 136.679 103.439 137.322C103.448 137.965 103.201 138.585 102.753 139.046C102.304 139.507 101.691 139.771 101.048 139.78C99.5301 139.802 97.988 139.812 96.4636 139.812ZM116.271 139.202C115.641 139.202 115.035 138.956 114.583 138.518C114.13 138.079 113.866 137.482 113.847 136.852C113.827 136.222 114.054 135.609 114.478 135.144C114.902 134.678 115.492 134.396 116.12 134.357C119.16 134.166 122.187 133.926 125.115 133.646C125.753 133.588 126.389 133.784 126.883 134.194C127.377 134.603 127.689 135.191 127.75 135.829C127.812 136.468 127.618 137.104 127.21 137.6C126.803 138.096 126.217 138.41 125.578 138.474C122.596 138.758 119.516 139.001 116.425 139.196C116.375 139.2 116.318 139.202 116.271 139.202ZM76.6557 139.202C76.6047 139.202 76.5528 139.202 76.5009 139.197C73.4094 139.002 70.33 138.759 67.347 138.475C66.7089 138.411 66.122 138.097 65.715 137.601C65.3079 137.105 65.1138 136.469 65.1751 135.83C65.2365 135.192 65.5482 134.604 66.0421 134.195C66.5361 133.785 67.172 133.589 67.8107 133.647C70.7408 133.926 73.7673 134.167 76.805 134.358C77.4339 134.397 78.0228 134.679 78.4473 135.144C78.8717 135.61 79.0981 136.223 79.0787 136.852C79.0593 137.482 78.7956 138.08 78.3433 138.518C77.891 138.957 77.2858 139.202 76.6557 139.203V139.202ZM140.491 136.556C139.878 136.561 139.286 136.334 138.833 135.92C138.381 135.506 138.102 134.937 138.053 134.325C138.004 133.714 138.189 133.107 138.569 132.626C138.95 132.146 139.499 131.827 140.105 131.734C143.184 131.234 146.151 130.674 148.925 130.071C149.236 130.003 149.557 129.998 149.871 130.054C150.184 130.111 150.483 130.229 150.751 130.401C151.019 130.573 151.25 130.796 151.432 131.058C151.614 131.319 151.742 131.614 151.809 131.925C151.877 132.237 151.883 132.558 151.826 132.871C151.77 133.185 151.652 133.484 151.48 133.752C151.307 134.02 151.084 134.251 150.823 134.433C150.561 134.614 150.266 134.743 149.955 134.81C147.099 135.431 144.047 136.007 140.885 136.522C140.755 136.544 140.624 136.555 140.492 136.556H140.491ZM52.4359 136.556C52.3045 136.556 52.1734 136.546 52.0437 136.525C48.8781 136.009 45.8311 135.433 42.9733 134.813C42.6621 134.745 42.3673 134.617 42.1057 134.435C41.8441 134.254 41.6208 134.023 41.4486 133.755C41.2764 133.487 41.1587 133.188 41.1021 132.874C41.0455 132.561 41.0512 132.239 41.1188 131.928C41.1865 131.617 41.3147 131.322 41.4963 131.061C41.6779 130.799 41.9092 130.576 42.1771 130.404C42.4449 130.231 42.7441 130.114 43.0575 130.057C43.3709 130 43.6923 130.006 44.0035 130.074C46.7741 130.676 49.7413 131.237 52.8226 131.737C53.4287 131.83 53.9773 132.148 54.358 132.629C54.7386 133.11 54.923 133.717 54.8739 134.328C54.8249 134.939 54.5462 135.509 54.0938 135.923C53.6414 136.337 53.0491 136.564 52.4359 136.559V136.556Z" fill="white"/>
<path id="Path 40793" d="M164.102 130.654C163.536 130.653 162.987 130.455 162.552 130.093C162.117 129.731 161.822 129.228 161.719 128.671C161.615 128.114 161.71 127.539 161.986 127.045C162.262 126.55 162.703 126.168 163.231 125.965C164.833 125.348 166.303 124.705 167.597 124.053C168.171 123.763 168.837 123.714 169.447 123.915C170.058 124.116 170.564 124.552 170.854 125.126C171.143 125.7 171.193 126.366 170.991 126.977C170.79 127.588 170.355 128.093 169.78 128.383C168.342 129.108 166.72 129.817 164.971 130.492C164.693 130.599 164.399 130.654 164.102 130.654Z" fill="white"/>
<path id="Path 40794" d="M119.182 157.393C118.552 157.394 117.946 157.148 117.494 156.71C117.041 156.271 116.778 155.674 116.758 155.044C116.738 154.414 116.965 153.801 117.389 153.336C117.814 152.87 118.403 152.588 119.032 152.549C122.071 152.358 125.099 152.118 128.026 151.838C128.665 151.78 129.301 151.976 129.795 152.385C130.289 152.795 130.6 153.383 130.662 154.021C130.723 154.66 130.529 155.296 130.122 155.792C129.715 156.287 129.128 156.602 128.49 156.666C125.508 156.95 122.428 157.193 119.336 157.388C119.284 157.393 119.233 157.393 119.182 157.393Z" fill="white"/>
<path id="Path 40795" d="M73.7466 157.393C73.6956 157.393 73.6436 157.393 73.5917 157.388C70.5003 157.193 67.4209 156.95 64.4379 156.666C63.7997 156.602 63.2129 156.287 62.8059 155.792C62.3988 155.296 62.2047 154.659 62.266 154.021C62.3273 153.383 62.6391 152.795 63.133 152.385C63.627 151.976 64.2629 151.78 64.9015 151.838C67.8316 152.116 70.8582 152.358 73.8958 152.549C74.5247 152.588 75.1137 152.87 75.5381 153.335C75.9625 153.801 76.189 154.414 76.1696 155.043C76.1502 155.673 75.8864 156.271 75.4342 156.709C74.9819 157.148 74.3766 157.393 73.7466 157.393V157.393Z" fill="white"/>
<path id="Path 40796" d="M143.403 154.746C142.79 154.751 142.197 154.524 141.745 154.11C141.293 153.696 141.014 153.126 140.965 152.515C140.916 151.904 141.1 151.297 141.481 150.816C141.861 150.335 142.41 150.016 143.016 149.924C146.096 149.423 149.063 148.863 151.836 148.261C152.147 148.193 152.469 148.187 152.782 148.244C153.096 148.3 153.395 148.418 153.663 148.59C153.931 148.762 154.162 148.985 154.344 149.247C154.525 149.509 154.654 149.803 154.721 150.115C154.789 150.426 154.795 150.747 154.738 151.061C154.682 151.374 154.564 151.673 154.392 151.941C154.22 152.209 153.996 152.44 153.735 152.622C153.473 152.804 153.178 152.932 152.867 153C150.011 153.621 146.96 154.197 143.797 154.711C143.667 154.734 143.535 154.745 143.403 154.746Z" fill="white"/>
<path id="Path 40797" d="M49.5267 154.745C49.3954 154.745 49.2642 154.734 49.1345 154.713C45.9689 154.198 42.9219 153.622 40.0641 153.002C39.753 152.934 39.4581 152.806 39.1965 152.624C38.9349 152.442 38.7117 152.211 38.5394 151.943C38.3672 151.675 38.2495 151.376 38.1929 151.063C38.1363 150.749 38.142 150.428 38.2096 150.117C38.2773 149.806 38.4055 149.511 38.5871 149.249C38.7687 148.988 39 148.764 39.2679 148.592C39.5358 148.42 39.8349 148.302 40.1483 148.246C40.4617 148.189 40.7831 148.195 41.0943 148.262C43.8649 148.865 46.8321 149.425 49.9134 149.926C50.5196 150.018 51.0682 150.337 51.4488 150.818C51.8294 151.298 52.0138 151.906 51.9648 152.517C51.9157 153.128 51.637 153.698 51.1846 154.112C50.7323 154.526 50.1399 154.753 49.5267 154.748V154.745Z" fill="white"/>
</g>
<g id="Group 46084">
<path id="Path 40798" d="M68.0699 114.028L32.8724 91.4844C30.7935 92.1495 28.8855 92.8471 27.1484 93.5772L62.0734 115.945C64.0224 115.16 66.0266 114.519 68.0699 114.028Z" fill="#E5E4D4"/>
<path id="Path 40799" d="M83.842 111.593L65.1913 85.3086C63.3232 85.5046 61.4922 85.7172 59.6982 85.9465L78.3045 112.168C80.0774 111.944 81.9263 111.751 83.842 111.593Z" fill="#E5E4D4"/>
<path id="Path 40800" d="M96.4638 111.089C97.2779 111.089 98.0862 111.095 98.8886 111.107V83.7495C98.085 83.7433 97.2767 83.7402 96.4638 83.7402C95.6509 83.7402 94.8427 83.7433 94.0391 83.7495V111.103C94.8414 111.094 95.6497 111.089 96.4638 111.089Z" fill="#E5E4D4"/>
<path id="Path 40801" d="M114.601 112.166L133.207 85.9446C131.415 85.7152 129.583 85.5026 127.713 85.3066L109.062 111.592C110.977 111.75 112.828 111.942 114.601 112.166Z" fill="#E5E4D4"/>
</g>
<path id="Path 40802" d="M127.715 85.3066L126.479 87.048C128.29 87.3453 130.048 87.66 131.755 87.992L133.208 85.9446C132.385 85.8398 131.552 85.7387 130.712 85.6405L130.249 85.5876C129.41 85.4905 128.566 85.3969 127.715 85.3066Z" fill="#CCDFED"/>
<path id="Path 40803" d="M130.841 115.939L165.766 93.5684C164.035 92.8402 162.127 92.1429 160.04 91.4766L124.846 114.02C126.889 114.512 128.893 115.153 130.841 115.939Z" fill="#E5E4D4"/>
<path id="Path 40804" d="M160.04 91.4746L154.549 94.9982C156.154 95.7923 157.672 96.7493 159.081 97.8541L165.765 93.573C164.478 93.0327 163.095 92.5091 161.614 92.0022L161.511 91.967C161.03 91.8013 160.539 91.6372 160.04 91.4746Z" fill="#CCDFED"/>
</g>
</g>
<defs>
<clipPath id="clip0_1663_4407">
<rect width="192.556" height="204" fill="white"/>
</clipPath>
</defs>
</svg>
