<svg xmlns="http://www.w3.org/2000/svg" width="33.734" height="28.463" viewBox="0 0 33.734 28.463">
  <g id="loading" transform="translate(0.001 0)">
    <g id="Group_66" data-name="Group 66" transform="translate(5.712 0)">
      <g id="Group_65" data-name="Group 65">
        <path id="Path_55" data-name="Path 55" d="M114.347,56.072a1.318,1.318,0,0,0-1.864-.009l-3.026,3V54.232A14.236,14.236,0,0,0,88.541,41.665l-.008,0-.017.009h0l-.039.021-.019.01-.014.007-.229.127-.015.009c-.31.176-.615.365-.909.563A1.318,1.318,0,1,0,88.76,44.6a11.6,11.6,0,0,1,18.061,9.628V59.09l-3.033-2.961a1.318,1.318,0,1,0-1.841,1.886l3.408,3.326a3.985,3.985,0,0,0,5.562-.02l3.421-3.387A1.318,1.318,0,0,0,114.347,56.072Z" transform="translate(-86.707 -40)" fill="#4c246e"/>
      </g>
    </g>
    <g id="Group_68" data-name="Group 68" transform="translate(-0.001 12.124)">
      <g id="Group_67" data-name="Group 67" transform="translate(0 0)">
        <path id="Path_56" data-name="Path 56" d="M1.421,224.016a1.316,1.316,0,0,0-1.395,1.236c-.017.287-.026.58-.026.869,0,.193,0,.388.012.58a1.318,1.318,0,0,0,1.316,1.265h.054a1.318,1.318,0,0,0,1.264-1.37c-.006-.157-.01-.317-.01-.474,0-.237.007-.476.021-.71A1.318,1.318,0,0,0,1.421,224.016Z" transform="translate(0 -224.014)" fill="#4c246e"/>
      </g>
    </g>
    <g id="Group_70" data-name="Group 70" transform="translate(1.275 18.518)">
      <g id="Group_69" data-name="Group 69" transform="translate(0 0)">
        <path id="Path_57" data-name="Path 57" d="M22.437,322.839a11.579,11.579,0,0,1-.567-1.037,1.318,1.318,0,0,0-2.374,1.145,14.245,14.245,0,0,0,.7,1.273,1.318,1.318,0,1,0,2.244-1.381Z" transform="translate(-19.365 -321.057)" fill="#4c246e"/>
      </g>
    </g>
    <g id="Group_72" data-name="Group 72" transform="translate(11.599 25.761)">
      <g id="Group_71" data-name="Group 71" transform="translate(0 0)">
        <path id="Path_58" data-name="Path 58" d="M178.679,431.061c-.394,0-.792-.02-1.182-.059a1.318,1.318,0,0,0-.265,2.622,14.45,14.45,0,0,0,1.447.073h0a1.318,1.318,0,1,0,0-2.636Z" transform="translate(-176.046 -430.995)" fill="#4c246e"/>
      </g>
    </g>
    <g id="Group_74" data-name="Group 74" transform="translate(5.494 23.485)">
      <g id="Group_73" data-name="Group 73" transform="translate(0)">
        <path id="Path_59" data-name="Path 59" d="M86.467,397.31a11.651,11.651,0,0,1-1-.63,1.318,1.318,0,0,0-1.516,2.156,14.3,14.3,0,0,0,1.228.773,1.318,1.318,0,1,0,1.289-2.3Z" transform="translate(-83.39 -396.44)" fill="#4c246e"/>
      </g>
    </g>
    <g id="Group_76" data-name="Group 76" transform="translate(1.392 5.93)">
      <g id="Group_75" data-name="Group 75" transform="translate(0 0)">
        <path id="Path_60" data-name="Path 60" d="M23.83,130.217a1.318,1.318,0,0,0-1.821.394,14.25,14.25,0,0,0-.723,1.259,1.318,1.318,0,1,0,2.35,1.194,11.618,11.618,0,0,1,.589-1.026A1.318,1.318,0,0,0,23.83,130.217Z" transform="translate(-21.143 -130.007)" fill="#4c246e"/>
      </g>
    </g>
  </g>
</svg>
