<svg width="128" height="40" viewBox="0 0 128 40" fill="none" xmlns="http://www.w3.org/2000/svg">
<g id="Payment method icon">
<rect x="0.5" y="0.5" width="127" height="39" rx="3.5" fill="#F7F7FC"/>
<rect x="0.5" y="0.5" width="127" height="39" rx="3.5" stroke="#F2F4F7"/>
<g id="Mastercard">
<path id="Left" fill-rule="evenodd" clip-rule="evenodd" d="M64.0215 29.1331C61.9009 30.9208 59.15 32 56.144 32C49.4371 32 44 26.6274 44 20C44 13.3726 49.4371 8 56.144 8C59.15 8 61.9009 9.07919 64.0215 10.8669C66.1422 9.07919 68.8931 8 71.899 8C78.606 8 84.0431 13.3726 84.0431 20C84.0431 26.6274 78.606 32 71.899 32C68.8931 32 66.1422 30.9208 64.0215 29.1331Z" fill="#ED0006"/>
<path id="Right" fill-rule="evenodd" clip-rule="evenodd" d="M64.0215 29.1331C66.6325 26.9321 68.288 23.6571 68.288 20C68.288 16.3429 66.6325 13.0679 64.0215 10.8669C66.1421 9.07919 68.893 8 71.899 8C78.6059 8 84.043 13.3726 84.043 20C84.043 26.6274 78.6059 32 71.899 32C68.893 32 66.1421 30.9208 64.0215 29.1331Z" fill="#F9A000"/>
<path id="Middle" fill-rule="evenodd" clip-rule="evenodd" d="M64.0205 29.133C66.6314 26.9319 68.287 23.6569 68.287 19.9998C68.287 16.3427 66.6314 13.0677 64.0205 10.8667C61.4095 13.0677 59.7539 16.3427 59.7539 19.9998C59.7539 23.6569 61.4095 26.9319 64.0205 29.133Z" fill="#FF5E00"/>
</g>
</g>
</svg>
