<svg width="193" height="204" viewBox="0 0 193 204" fill="none" xmlns="http://www.w3.org/2000/svg">
<g id="Component 1" clip-path="url(#clip0_1083_103734)">
<path id="Path 4" opacity="0.1" d="M153.017 193.001C156.385 190.3 159.381 187.165 161.927 183.679C173.682 167.528 170.128 148.529 166.329 130.36C161.762 108.529 163.044 85.3888 156.862 63.9432C152.194 47.7474 141.251 27.9389 121.38 31.2981C111.881 32.904 105.277 40.4543 98.0751 46.1397C89.5907 52.8433 78.8942 58.0136 68.7311 61.5944C51.4108 67.6971 32.0308 67.2088 15.8455 76.6542C-3.531 87.9644 -3.06522 112.178 6.19838 130.127C20.9968 158.79 60.5523 147.637 81.2699 168.504C91.9602 179.273 97.8924 195.536 111.81 201.585C125.366 207.478 142.069 201.801 153.017 193.001Z" fill="#4C246D"/>
<g id="Group 46161">
<path id="Rectangle 17845" d="M26.9666 118.199H18.7969V138.264H26.9666V118.199Z" fill="#626F7A"/>
<path id="Path 40866" d="M49.5854 61H29.3998C26.2329 61 23.1957 62.258 20.9564 64.4974C18.717 66.7367 17.459 69.7739 17.459 72.9408V115.772H61.5272V72.9408C61.5269 69.7738 60.2687 66.7366 58.0292 64.4973C55.7897 62.258 52.7524 61 49.5854 61Z" fill="#835EA1"/>
<g id="Group 46153">
<path id="Path 40867" d="M49.5848 61H34.4512C37.6181 61 40.6553 62.258 42.8946 64.4974C45.134 66.7367 46.392 69.7739 46.392 72.9408V115.772H61.5267V72.9408C61.5267 71.3727 61.2178 69.8198 60.6176 68.371C60.0175 66.9222 59.1378 65.6059 58.0289 64.497C56.92 63.3882 55.6035 62.5087 54.1547 61.9087C52.7059 61.3086 51.153 60.9999 49.5848 61Z" fill="#683495"/>
<path id="Path 40868" d="M65.5692 123.19H13.4154C12.7755 123.19 12.1617 122.936 11.7089 122.484C11.256 122.032 11.0011 121.419 11 120.779V113.806C11 113.165 11.2545 112.551 11.7074 112.098C12.1604 111.645 12.7748 111.391 13.4154 111.391H65.5692C66.2098 111.391 66.8242 111.645 67.2772 112.098C67.7302 112.551 67.9846 113.165 67.9846 113.806V120.779C67.9836 121.419 67.7286 122.032 67.2758 122.484C66.8229 122.936 66.2092 123.19 65.5692 123.19Z" fill="#793DAB"/>
</g>
<path id="Path 40869" d="M106.548 61H86.3627C83.1958 61 80.1586 62.258 77.9193 64.4974C75.6799 66.7367 74.4219 69.7739 74.4219 72.9408V115.772H118.49V72.9408C118.49 69.7738 117.232 66.7366 114.992 64.4973C112.753 62.258 109.715 61 106.548 61Z" fill="#835EA1"/>
<g id="Group 46154">
<path id="Path 40870" d="M106.548 61H91.3281C94.495 61 97.5322 62.258 99.7716 64.4974C102.011 66.7367 103.269 69.7739 103.269 72.9408V115.772H118.489V72.9408C118.488 69.774 117.23 66.737 114.991 64.4977C112.752 62.2584 109.715 61.0003 106.548 61Z" fill="#683495"/>
<path id="Path 40871" d="M122.532 123.19H70.3783C69.7377 123.19 69.1233 122.936 68.6703 122.483C68.2174 122.03 67.9629 121.416 67.9629 120.775V113.802C67.9629 113.162 68.2174 112.547 68.6703 112.094C69.1233 111.641 69.7377 111.387 70.3783 111.387H122.532C123.173 111.387 123.787 111.641 124.24 112.094C124.693 112.547 124.948 113.162 124.948 113.802V120.775C124.948 121.416 124.693 122.03 124.24 122.483C123.787 122.936 123.173 123.19 122.532 123.19Z" fill="#793DAB"/>
</g>
<path id="Rectangle 17846" d="M174.047 118.199H165.877V138.264H174.047V118.199Z" fill="#626F7A"/>
<path id="Path 40872" d="M163.529 61H143.343C141.775 61 140.222 61.3089 138.774 61.9089C137.325 62.509 136.009 63.3886 134.9 64.4974C133.791 65.6062 132.911 66.9225 132.311 68.3713C131.711 69.82 131.402 71.3727 131.402 72.9408V115.772H175.476V72.9408C175.475 71.3723 175.166 69.8191 174.566 68.37C173.965 66.921 173.085 65.6044 171.976 64.4956C170.866 63.3867 169.549 62.5073 168.1 61.9075C166.651 61.3077 165.097 60.9993 163.529 61Z" fill="#835EA1"/>
<g id="Group 46155">
<path id="Path 40873" d="M163.528 61H148.395C151.561 61 154.599 62.258 156.838 64.4974C159.077 66.7367 160.335 69.7739 160.335 72.9408V115.772H175.469V72.9408C175.469 71.3727 175.16 69.82 174.56 68.3713C173.96 66.9225 173.08 65.6062 171.972 64.4974C170.863 63.3886 169.546 62.509 168.098 61.9089C166.649 61.3089 165.096 61 163.528 61Z" fill="#683495"/>
<path id="Path 40874" d="M179.513 123.19H127.359C126.718 123.19 126.104 122.936 125.651 122.483C125.198 122.03 124.943 121.416 124.943 120.775V113.802C124.943 113.162 125.198 112.547 125.651 112.094C126.104 111.641 126.718 111.387 127.359 111.387H179.513C180.153 111.387 180.768 111.641 181.221 112.094C181.673 112.547 181.928 113.162 181.928 113.802V120.775C181.928 121.416 181.673 122.03 181.221 122.483C180.768 122.936 180.153 123.19 179.513 123.19Z" fill="#793DAB"/>
</g>
<path id="Path 40875" d="M179.512 111.391H166.74V123.197H179.516C180.156 123.197 180.771 122.943 181.223 122.49C181.676 122.037 181.931 121.423 181.931 120.782V113.809C181.931 113.491 181.869 113.177 181.748 112.883C181.626 112.589 181.448 112.322 181.223 112.098C180.998 111.873 180.732 111.695 180.438 111.574C180.144 111.452 179.829 111.39 179.512 111.391Z" fill="#4C246E"/>
<g id="Group 46156">
<path id="Rectangle 17847" d="M55.4412 149.551H47.2715V169.615H55.4412V149.551Z" fill="#626F7A"/>
<path id="Rectangle 17848" d="M88.5759 149.551H80.4062V169.615H88.5759V149.551Z" fill="#626F7A"/>
</g>
<path id="Path 40876" d="M78.058 92.3516H57.8725C54.7056 92.3516 51.6684 93.6096 49.429 95.849C47.1897 98.0883 45.9316 101.126 45.9316 104.292V147.124H89.9999V104.292C89.9996 101.125 88.7413 98.0882 86.5018 95.8489C84.2623 93.6096 81.225 92.3516 78.058 92.3516Z" fill="#835EA1"/>
<g id="Group 46157">
<path id="Path 40877" d="M78.0594 92.3516H62.9258C66.0927 92.3516 69.1299 93.6096 71.3692 95.849C73.6086 98.0883 74.8666 101.126 74.8666 104.292V147.124H90.0043V104.292C90.0043 102.724 89.6953 101.171 89.095 99.7219C88.4946 98.2729 87.6147 96.9564 86.5055 95.8475C85.3962 94.7387 84.0794 93.8592 82.6302 93.2594C81.181 92.6595 79.6279 92.351 78.0594 92.3516Z" fill="#683495"/>
<path id="Path 40878" d="M94.0438 154.546H41.89C41.2494 154.546 40.635 154.291 40.1821 153.838C39.7291 153.386 39.4746 152.771 39.4746 152.131V145.158C39.4746 144.517 39.7291 143.903 40.1821 143.45C40.635 142.997 41.2494 142.742 41.89 142.742H94.0438C94.6844 142.742 95.2988 142.997 95.7518 143.45C96.2047 143.903 96.4592 144.517 96.4592 145.158V152.132C96.4587 152.772 96.204 153.386 95.7511 153.839C95.2982 154.291 94.6842 154.546 94.0438 154.546Z" fill="#793DAB"/>
</g>
<path id="Path 40879" d="M94.0428 142.742H81.0664V154.549H94.0428C94.6834 154.549 95.2978 154.294 95.7508 153.841C96.2037 153.389 96.4582 152.774 96.4582 152.134V145.158C96.4582 144.517 96.2037 143.903 95.7508 143.45C95.2978 142.997 94.6834 142.742 94.0428 142.742Z" fill="#4C246E"/>
<g id="Group 46158">
<path id="Rectangle 17849" d="M112.422 149.551H104.252V169.615H112.422V149.551Z" fill="#626F7A"/>
<path id="Rectangle 17850" d="M145.556 149.551H137.387V169.615H145.556V149.551Z" fill="#626F7A"/>
</g>
<path id="Path 40880" d="M135.038 92.3516H114.853C111.686 92.3516 108.649 93.6096 106.41 95.849C104.17 98.0883 102.912 101.126 102.912 104.292V147.124H146.98V104.292C146.98 101.125 145.722 98.0882 143.482 95.8489C141.243 93.6096 138.205 92.3516 135.038 92.3516Z" fill="#835EA1"/>
<g id="Group 46159">
<path id="Path 40881" d="M135.038 92.3516H119.861C121.429 92.3516 122.982 92.6604 124.431 93.2605C125.88 93.8606 127.196 94.7401 128.305 95.849C129.414 96.9578 130.293 98.2741 130.893 99.7228C131.493 101.172 131.802 102.724 131.802 104.292V147.124H146.979V104.292C146.979 101.126 145.72 98.0885 143.481 95.8492C141.242 93.61 138.205 92.3518 135.038 92.3516Z" fill="#683495"/>
<path id="Path 40882" d="M151.022 154.546H98.8685C98.2279 154.546 97.6135 154.291 97.1606 153.838C96.7076 153.386 96.4531 152.771 96.4531 152.131V145.158C96.4531 144.517 96.7076 143.903 97.1606 143.45C97.6135 142.997 98.2279 142.742 98.8685 142.742H151.022C151.663 142.742 152.277 142.997 152.73 143.45C153.183 143.903 153.438 144.517 153.438 145.158V152.132C153.438 152.772 153.183 153.386 152.73 153.839C152.277 154.292 151.663 154.546 151.022 154.546Z" fill="#793DAB"/>
</g>
<path id="Path 40883" d="M151.023 142.742H138.189V154.549H151.023C151.663 154.549 152.278 154.294 152.731 153.841C153.184 153.389 153.438 152.774 153.438 152.134V145.158C153.438 144.517 153.184 143.903 152.731 143.45C152.278 142.997 151.663 142.742 151.023 142.742Z" fill="#4C246E"/>
<g id="Group 46160">
<path id="Path 40884" d="M90.3925 167.211H78.6768C78.3483 167.206 78.0221 167.266 77.7169 167.388C77.4118 167.51 77.1338 167.691 76.899 167.92C76.6643 168.15 76.4774 168.424 76.3492 168.727C76.2211 169.029 76.1542 169.354 76.1523 169.683C76.1523 169.771 76.1614 169.86 76.1724 169.949C76.2663 170.58 76.5863 171.156 77.0728 171.57C77.5594 171.983 78.1794 172.206 78.8179 172.197H90.2504C90.8907 172.206 91.5125 171.982 91.9999 171.567C92.4872 171.151 92.8067 170.573 92.8989 169.939C92.9099 169.85 92.9159 169.761 92.9179 169.673C92.9148 169.345 92.8469 169.021 92.7181 168.72C92.5893 168.418 92.4021 168.145 92.1674 167.916C91.9327 167.688 91.655 167.508 91.3504 167.387C91.0458 167.266 90.7202 167.206 90.3925 167.211Z" fill="#384652"/>
<path id="Path 40885" d="M57.2577 167.211H45.542C45.2135 167.206 44.8873 167.266 44.5821 167.388C44.277 167.51 43.999 167.691 43.7643 167.92C43.5295 168.15 43.3426 168.424 43.2145 168.727C43.0863 169.029 43.0194 169.354 43.0176 169.683C43.0176 169.771 43.0266 169.86 43.0376 169.949C43.1315 170.58 43.4515 171.156 43.938 171.57C44.4246 171.983 45.0447 172.206 45.6831 172.197H57.1146C57.755 172.206 58.3768 171.982 58.8641 171.567C59.3514 171.151 59.6709 170.573 59.7632 169.939C59.7742 169.85 59.7802 169.761 59.7822 169.673C59.779 169.345 59.7112 169.021 59.5824 168.72C59.4537 168.418 59.2666 168.146 59.032 167.917C58.7973 167.688 58.5198 167.508 58.2153 167.387C57.9108 167.266 57.5854 167.206 57.2577 167.211Z" fill="#384652"/>
<path id="Path 40886" d="M28.7421 135.77H17.0264C16.6979 135.765 16.3717 135.825 16.0665 135.946C15.7614 136.068 15.4834 136.249 15.2486 136.479C15.0139 136.709 14.827 136.983 14.6989 137.285C14.5707 137.588 14.5038 137.913 14.502 138.241C14.502 138.329 14.511 138.418 14.522 138.507C14.6159 139.139 14.9359 139.715 15.4224 140.129C15.909 140.542 16.529 140.765 17.1675 140.756H28.599C29.2394 140.765 29.8612 140.541 30.3485 140.125C30.8358 139.71 31.1553 139.131 31.2475 138.497C31.2585 138.408 31.2646 138.319 31.2666 138.231C31.2636 137.904 31.1958 137.58 31.0671 137.278C30.9383 136.977 30.7513 136.704 30.5166 136.475C30.282 136.246 30.0044 136.066 29.6998 135.945C29.3953 135.824 29.0698 135.765 28.7421 135.77Z" fill="#384652"/>
<path id="Path 40887" d="M175.822 135.77H164.106C163.778 135.765 163.452 135.825 163.147 135.946C162.841 136.068 162.563 136.249 162.329 136.479C162.094 136.709 161.907 136.983 161.779 137.285C161.651 137.588 161.584 137.913 161.582 138.241C161.582 138.329 161.591 138.418 161.602 138.507C161.696 139.139 162.016 139.715 162.502 140.129C162.989 140.542 163.609 140.765 164.248 140.756H175.68C176.32 140.765 176.942 140.541 177.43 140.125C177.917 139.71 178.236 139.131 178.329 138.497C178.34 138.408 178.346 138.319 178.348 138.231C178.344 137.904 178.277 137.58 178.148 137.278C178.019 136.977 177.832 136.704 177.597 136.475C177.362 136.246 177.085 136.066 176.78 135.945C176.475 135.824 176.15 135.765 175.822 135.77Z" fill="#384652"/>
<path id="Path 40888" d="M114.238 167.211H102.521C102.192 167.206 101.866 167.266 101.561 167.388C101.256 167.51 100.978 167.691 100.743 167.92C100.508 168.15 100.321 168.424 100.193 168.727C100.065 169.029 99.9979 169.354 99.9961 169.683C99.9961 169.771 100.005 169.86 100.016 169.949C100.11 170.58 100.43 171.156 100.917 171.57C101.403 171.983 102.023 172.206 102.662 172.197H114.094C114.734 172.206 115.356 171.982 115.844 171.567C116.331 171.151 116.65 170.573 116.743 169.939C116.754 169.85 116.76 169.761 116.762 169.673C116.759 169.345 116.691 169.021 116.562 168.72C116.434 168.419 116.247 168.146 116.012 167.917C115.778 167.688 115.5 167.508 115.196 167.387C114.891 167.266 114.566 167.206 114.238 167.211Z" fill="#384652"/>
<path id="Path 40889" d="M147.373 167.211H135.657C135.329 167.206 135.002 167.266 134.697 167.388C134.392 167.51 134.114 167.691 133.879 167.921C133.644 168.151 133.458 168.425 133.329 168.727C133.201 169.03 133.134 169.355 133.133 169.684C133.135 169.773 133.142 169.862 133.153 169.95C133.247 170.581 133.567 171.157 134.053 171.571C134.54 171.984 135.16 172.207 135.798 172.198H147.231C147.871 172.207 148.493 171.983 148.98 171.568C149.467 171.153 149.787 170.574 149.879 169.941C149.89 169.852 149.896 169.763 149.898 169.675C149.896 169.347 149.828 169.023 149.699 168.721C149.57 168.419 149.383 168.146 149.149 167.917C148.914 167.688 148.636 167.508 148.331 167.387C148.027 167.266 147.701 167.206 147.373 167.211Z" fill="#384652"/>
</g>
</g>
</g>
<defs>
<clipPath id="clip0_1083_103734">
<rect width="192.556" height="204" fill="white"/>
</clipPath>
</defs>
</svg>
