<svg width="193" height="204" viewBox="0 0 193 204" fill="none" xmlns="http://www.w3.org/2000/svg">
<g id="Component 1" clip-path="url(#clip0_1083_103628)">
<path id="Path 4" opacity="0.1" d="M153.017 193.001C156.385 190.3 159.381 187.165 161.927 183.679C173.682 167.528 170.128 148.529 166.329 130.36C161.762 108.529 163.044 85.3888 156.862 63.9432C152.194 47.7474 141.251 27.9389 121.38 31.2981C111.881 32.904 105.277 40.4543 98.0751 46.1397C89.5907 52.8433 78.8942 58.0136 68.7311 61.5944C51.4108 67.6971 32.0308 67.2088 15.8455 76.6542C-3.531 87.9644 -3.06522 112.178 6.19838 130.127C20.9968 158.79 60.5523 147.637 81.2699 168.504C91.9602 179.273 97.8924 195.536 111.81 201.585C125.366 207.478 142.069 201.801 153.017 193.001Z" fill="#4C246D"/>
<g id="Group 46151">
<path id="Path 40829" d="M157.513 102.636H140.811L138.738 97.2101L137.273 93.4079L136.104 90.3731L132.58 81.2267L130.246 75.1511L128.781 71.3559L126.824 66.2809L152.139 56.5391C154.158 55.7662 156.401 55.8264 158.375 56.7066C160.35 57.5867 161.894 59.2148 162.668 61.2329L170.453 81.4728C168.681 82.1554 167.204 83.4359 166.276 85.0926C165.349 86.7494 165.03 88.6783 165.374 90.5455C165.718 92.4128 166.704 94.1009 168.162 95.3179C169.619 96.535 171.456 97.2043 173.355 97.2101L176.313 96.6668L179.487 104.959L157.513 102.636Z" fill="#F3CA1E"/>
<path id="Path 40830" d="M154.932 110.488C154.657 110.489 154.389 110.406 154.163 110.251C153.937 110.095 153.763 109.875 153.665 109.619L138.61 70.4898C138.543 70.323 138.51 70.1446 138.513 69.9649C138.515 69.7852 138.554 69.6079 138.626 69.4431C138.697 69.2784 138.801 69.1296 138.931 69.0053C139.061 68.8811 139.214 68.7838 139.382 68.7193C139.549 68.6548 139.728 68.6243 139.908 68.6295C140.087 68.6347 140.264 68.6756 140.428 68.7497C140.592 68.8239 140.739 68.9298 140.861 69.0614C140.984 69.193 141.079 69.3476 141.141 69.5162L156.2 108.645C156.279 108.851 156.307 109.072 156.281 109.291C156.255 109.509 156.177 109.718 156.052 109.9C155.928 110.081 155.761 110.23 155.566 110.332C155.372 110.435 155.155 110.488 154.935 110.488H154.932Z" fill="#F6E189"/>
<path id="Path 40831" d="M160.06 108.712C159.786 108.712 159.519 108.629 159.292 108.474C159.066 108.319 158.892 108.1 158.794 107.844L148.54 81.2023C148.41 80.8666 148.42 80.4934 148.566 80.1647C148.712 79.836 148.983 79.5789 149.319 79.4498C149.654 79.3206 150.028 79.3302 150.356 79.4763C150.685 79.6224 150.942 79.893 151.071 80.2287L161.324 106.873C161.388 107.04 161.419 107.217 161.415 107.395C161.411 107.573 161.371 107.748 161.299 107.911C161.227 108.074 161.123 108.221 160.994 108.344C160.865 108.466 160.713 108.563 160.547 108.626C160.391 108.684 160.226 108.713 160.06 108.712Z" fill="#F6E189"/>
<path id="Path 40832" d="M146.66 178.61H19.1398C18.0706 178.612 17.0117 178.402 16.0236 177.994C15.0355 177.586 14.1377 176.986 13.3816 176.23C12.6255 175.474 12.0259 174.577 11.6172 173.589C11.2086 172.601 10.9988 171.542 11 170.473V148.765C12.0694 148.766 13.1285 148.557 14.1167 148.148C15.1049 147.74 16.0028 147.14 16.7589 146.384C17.5151 145.628 18.1146 144.73 18.5232 143.742C18.9317 142.754 19.1413 141.694 19.1398 140.625C19.1413 139.556 18.9317 138.497 18.5231 137.509C18.1146 136.52 17.515 135.623 16.7589 134.866C16.0027 134.11 15.1048 133.511 14.1166 133.103C13.1284 132.694 12.0693 132.485 11 132.486V110.78C10.9984 109.711 11.2079 108.652 11.6164 107.664C12.0249 106.675 12.6244 105.777 13.3806 105.021C14.1367 104.265 15.0347 103.666 16.023 103.257C17.0113 102.849 18.0704 102.639 19.1398 102.641H146.66V178.61Z" fill="#4C246D"/>
<path id="Path 40833" d="M146.66 170.471V102.641H173.792C174.862 102.639 175.921 102.849 176.909 103.257C177.897 103.666 178.795 104.265 179.551 105.021C180.308 105.777 180.907 106.675 181.316 107.664C181.724 108.652 181.934 109.711 181.932 110.78V132.486C179.773 132.486 177.703 133.344 176.176 134.87C174.65 136.397 173.792 138.467 173.792 140.626C173.792 142.785 174.65 144.855 176.176 146.382C177.703 147.908 179.773 148.766 181.932 148.766V170.471C181.933 171.54 181.724 172.599 181.315 173.587C180.907 174.576 180.307 175.473 179.551 176.23C178.795 176.986 177.897 177.585 176.909 177.994C175.921 178.402 174.862 178.612 173.792 178.61H146.66V170.471Z" fill="#3A81D7"/>
<path id="Path 40834" d="M46.4065 102.636H32.2832L126.823 66.2812L128.78 71.3582L130.245 75.1535L132.58 81.2321L136.101 90.3785L137.271 93.4133L140.809 102.639L46.4065 102.636Z" fill="#9C52D9"/>
<path id="Path 40835" d="M146.661 113.49C146.301 113.49 145.956 113.347 145.701 113.092C145.447 112.838 145.304 112.493 145.304 112.133V108.064C145.304 107.704 145.447 107.359 145.701 107.104C145.956 106.85 146.301 106.707 146.661 106.707C147.02 106.707 147.365 106.85 147.62 107.104C147.874 107.359 148.017 107.704 148.017 108.064V112.133C148.017 112.311 147.982 112.488 147.914 112.653C147.846 112.817 147.746 112.967 147.62 113.093C147.494 113.219 147.345 113.319 147.18 113.387C147.015 113.455 146.839 113.49 146.661 113.49Z" fill="#4C246D"/>
<path id="Path 40836" d="M146.661 162.329C146.301 162.328 145.956 162.185 145.701 161.931C145.447 161.676 145.304 161.332 145.304 160.972V152.829C145.304 152.469 145.447 152.124 145.701 151.87C145.956 151.615 146.301 151.472 146.661 151.472C147.02 151.472 147.365 151.615 147.62 151.87C147.874 152.124 148.017 152.469 148.017 152.829V160.969C148.018 161.147 147.983 161.324 147.915 161.489C147.847 161.654 147.747 161.804 147.621 161.93C147.495 162.056 147.345 162.156 147.18 162.225C147.016 162.293 146.839 162.328 146.661 162.329ZM146.661 146.049C146.301 146.049 145.956 145.906 145.701 145.651C145.447 145.397 145.304 145.052 145.304 144.692V136.552C145.304 136.193 145.447 135.847 145.701 135.593C145.956 135.339 146.301 135.196 146.661 135.196C147.02 135.196 147.365 135.339 147.62 135.593C147.874 135.847 148.017 136.193 148.017 136.552V144.692C148.017 145.052 147.874 145.397 147.62 145.651C147.365 145.906 147.02 146.049 146.661 146.049ZM146.661 129.769C146.301 129.769 145.956 129.626 145.702 129.372C145.448 129.118 145.305 128.774 145.304 128.415V120.275C145.304 119.915 145.447 119.57 145.701 119.315C145.956 119.061 146.301 118.918 146.661 118.918C147.02 118.918 147.365 119.061 147.62 119.315C147.874 119.57 148.017 119.915 148.017 120.275V128.415C148.017 128.774 147.873 129.118 147.619 129.372C147.365 129.626 147.02 129.769 146.661 129.769Z" fill="#4C246D"/>
<path id="Path 40837" d="M146.661 174.537C146.301 174.537 145.956 174.394 145.701 174.139C145.447 173.885 145.304 173.54 145.304 173.18V169.111C145.304 168.751 145.447 168.406 145.701 168.151C145.956 167.897 146.301 167.754 146.661 167.754C147.02 167.754 147.365 167.897 147.62 168.151C147.874 168.406 148.017 168.751 148.017 169.111V173.18C148.017 173.54 147.874 173.885 147.62 174.139C147.365 174.394 147.02 174.537 146.661 174.537Z" fill="#4C246D"/>
<path id="Path 40838" d="M157.512 171.826C157.152 171.825 156.807 171.682 156.553 171.428C156.299 171.174 156.156 170.829 156.155 170.469V110.779C156.155 110.419 156.298 110.074 156.553 109.819C156.807 109.565 157.152 109.422 157.512 109.422C157.872 109.422 158.217 109.565 158.471 109.819C158.726 110.074 158.869 110.419 158.869 110.779V170.469C158.869 170.829 158.726 171.174 158.471 171.428C158.217 171.682 157.872 171.825 157.512 171.826Z" fill="#A5CEFF"/>
<path id="Path 40839" d="M162.94 158.26C162.761 158.26 162.585 158.225 162.42 158.156C162.255 158.088 162.106 157.988 161.98 157.861C161.854 157.735 161.754 157.585 161.686 157.42C161.618 157.255 161.583 157.079 161.583 156.9V124.345C161.583 123.985 161.726 123.64 161.98 123.386C162.235 123.131 162.58 122.988 162.94 122.988C163.3 122.988 163.645 123.131 163.899 123.386C164.154 123.64 164.297 123.985 164.297 124.345V156.9C164.297 157.079 164.262 157.255 164.194 157.42C164.126 157.585 164.026 157.735 163.9 157.861C163.774 157.988 163.624 158.088 163.46 158.156C163.295 158.225 163.118 158.26 162.94 158.26Z" fill="#A5CEFF"/>
<g id="Group 46150">
<path id="Path 40840" d="M50.4196 166.398H50.3936C50.2163 166.399 50.0409 166.435 49.8774 166.503C49.7139 166.572 49.5656 166.672 49.441 166.798C49.3164 166.924 49.2179 167.074 49.1513 167.238C49.0847 167.402 49.0512 167.578 49.0528 167.755C49.0516 168.025 49.1304 168.289 49.2793 168.514C49.4281 168.738 49.6403 168.914 49.889 169.018C50.1377 169.122 50.4116 169.15 50.6763 169.099C50.9409 169.047 51.1843 168.918 51.3757 168.728C51.567 168.538 51.6977 168.296 51.7513 168.032C51.8048 167.768 51.7787 167.493 51.6764 167.244C51.574 166.994 51.4 166.781 51.1763 166.63C50.9525 166.48 50.6892 166.399 50.4196 166.398Z" fill="#C899EF"/>
<path id="Path 40841" d="M68.0303 139.266C67.853 139.266 67.6776 139.302 67.5141 139.37C67.3506 139.439 67.2023 139.539 67.0777 139.665C66.9531 139.791 66.8547 139.941 66.788 140.105C66.7214 140.269 66.6879 140.445 66.6895 140.622C66.6883 140.892 66.7671 141.156 66.9158 141.38C67.0645 141.605 67.2765 141.781 67.525 141.885C67.7735 141.989 68.0474 142.018 68.3119 141.966C68.5765 141.915 68.8199 141.786 69.0113 141.597C69.2028 141.407 69.3337 141.165 69.3876 140.901C69.4415 140.637 69.4158 140.363 69.3139 140.113C69.212 139.864 69.0385 139.65 68.8152 139.499C68.5918 139.348 68.3288 139.267 68.0593 139.266H68.0303Z" fill="#C899EF"/>
<path id="Path 40853" d="M35.376 128.828C35.1987 128.829 35.0233 128.864 34.8598 128.933C34.6963 129.001 34.548 129.102 34.4234 129.228C34.2988 129.354 34.2004 129.503 34.1337 129.668C34.0671 129.832 34.0336 130.008 34.0352 130.185C34.034 130.454 34.1128 130.718 34.2615 130.943C34.4102 131.168 34.6222 131.343 34.8707 131.448C35.1192 131.552 35.3931 131.58 35.6576 131.529C35.9222 131.477 36.1656 131.349 36.357 131.159C36.5485 130.97 36.6794 130.727 36.7333 130.463C36.7872 130.199 36.7615 129.925 36.6596 129.676C36.5577 129.426 36.3842 129.212 36.1609 129.062C35.9375 128.911 35.6745 128.83 35.405 128.828H35.376Z" fill="#C899EF"/>
<path id="Path 40842" d="M78.9098 112.132C79.2697 112.132 79.6148 111.989 79.8692 111.734C80.1237 111.48 80.2666 111.135 80.2666 110.775C80.2666 110.415 80.1237 110.07 79.8692 109.815C79.6148 109.561 79.2697 109.418 78.9098 109.418H78.8838C78.7065 109.418 78.5311 109.454 78.3676 109.523C78.2041 109.591 78.0558 109.691 77.9312 109.817C77.8066 109.944 77.7082 110.093 77.6415 110.257C77.5749 110.422 77.5414 110.598 77.543 110.775C77.5457 111.136 77.6908 111.481 77.9469 111.735C78.2029 111.989 78.5491 112.132 78.9098 112.132Z" fill="#C899EF"/>
<path id="Path 40843" d="M127.747 117.557C128.107 117.557 128.452 117.414 128.706 117.16C128.961 116.906 129.104 116.56 129.104 116.201C129.104 115.841 128.961 115.496 128.706 115.241C128.452 114.987 128.107 114.844 127.747 114.844H127.721C127.543 114.844 127.368 114.88 127.205 114.948C127.041 115.017 126.893 115.117 126.768 115.243C126.644 115.369 126.545 115.519 126.478 115.683C126.412 115.847 126.378 116.023 126.38 116.201C126.383 116.561 126.528 116.906 126.784 117.161C127.04 117.415 127.386 117.557 127.747 117.557Z" fill="#C899EF"/>
<path id="Path 40844" d="M103.302 141.98C103.125 141.981 102.949 142.017 102.786 142.085C102.622 142.154 102.474 142.254 102.349 142.38C102.225 142.506 102.126 142.656 102.059 142.82C101.993 142.984 101.959 143.16 101.961 143.337C101.96 143.607 102.039 143.871 102.187 144.095C102.336 144.32 102.548 144.496 102.797 144.6C103.045 144.704 103.319 144.732 103.583 144.681C103.848 144.63 104.091 144.501 104.283 144.311C104.474 144.122 104.605 143.88 104.659 143.616C104.713 143.352 104.687 143.077 104.585 142.828C104.484 142.578 104.31 142.365 104.087 142.214C103.863 142.063 103.6 141.982 103.331 141.98H103.302Z" fill="#C899EF"/>
<path id="Path 40845" d="M58.5602 166.398H58.5342C58.3569 166.399 58.1815 166.435 58.018 166.503C57.8545 166.572 57.7062 166.672 57.5816 166.798C57.457 166.924 57.3586 167.074 57.2919 167.238C57.2253 167.402 57.1918 167.578 57.1934 167.755C57.1922 168.025 57.271 168.289 57.4199 168.514C57.5687 168.738 57.7809 168.914 58.0296 169.018C58.2783 169.122 58.5523 169.15 58.8169 169.099C59.0816 169.047 59.325 168.918 59.5163 168.728C59.7077 168.538 59.8384 168.296 59.8919 168.032C59.9454 167.768 59.9193 167.493 59.817 167.244C59.7146 166.994 59.5406 166.781 59.3169 166.63C59.0932 166.48 58.8298 166.399 58.5602 166.398Z" fill="#C899EF"/>
<path id="Path 40846" d="M66.7008 166.398H66.6748C66.4975 166.399 66.3221 166.435 66.1586 166.503C65.9952 166.572 65.8468 166.672 65.7222 166.798C65.5976 166.924 65.4992 167.074 65.4326 167.238C65.3659 167.402 65.3325 167.578 65.334 167.755C65.3329 168.025 65.4117 168.289 65.5605 168.514C65.7094 168.738 65.9215 168.914 66.1702 169.018C66.4189 169.122 66.6929 169.15 66.9575 169.099C67.2222 169.047 67.4656 168.918 67.6569 168.728C67.8483 168.538 67.979 168.296 68.0325 168.032C68.086 167.768 68.06 167.493 67.9576 167.244C67.8553 166.994 67.6812 166.781 67.4575 166.63C67.2338 166.48 66.9705 166.399 66.7008 166.398Z" fill="#C899EF"/>
<path id="Path 40847" d="M74.8395 166.398H74.8135C74.6362 166.399 74.4608 166.435 74.2973 166.503C74.1338 166.572 73.9855 166.672 73.8609 166.798C73.7363 166.924 73.6379 167.074 73.5712 167.238C73.5046 167.402 73.4711 167.578 73.4727 167.755C73.4715 168.025 73.5503 168.289 73.6992 168.514C73.848 168.738 74.0602 168.914 74.3089 169.018C74.5576 169.122 74.8316 169.15 75.0962 169.099C75.3609 169.047 75.6042 168.918 75.7956 168.728C75.987 168.538 76.1177 168.296 76.1712 168.032C76.2247 167.768 76.1986 167.493 76.0963 167.244C75.9939 166.994 75.8199 166.781 75.5962 166.63C75.3725 166.48 75.1091 166.399 74.8395 166.398Z" fill="#C899EF"/>
<path id="Path 40848" d="M82.9782 166.398H82.9522C82.7749 166.399 82.5995 166.435 82.436 166.503C82.2725 166.572 82.1242 166.672 81.9996 166.798C81.875 166.924 81.7765 167.074 81.7099 167.238C81.6433 167.402 81.6098 167.578 81.6114 167.755C81.6102 168.025 81.689 168.289 81.8379 168.514C81.9867 168.738 82.1989 168.914 82.4476 169.018C82.6962 169.122 82.9702 169.15 83.2349 169.099C83.4995 169.047 83.7429 168.918 83.9343 168.728C84.1256 168.538 84.2563 168.296 84.3099 168.032C84.3634 167.768 84.3373 167.493 84.2349 167.244C84.1326 166.994 83.9585 166.781 83.7348 166.63C83.5111 166.48 83.2478 166.399 82.9782 166.398Z" fill="#C899EF"/>
<path id="Path 40849" d="M91.1188 166.398H91.0928C90.9155 166.399 90.7401 166.435 90.5766 166.503C90.4131 166.572 90.2648 166.672 90.1402 166.798C90.0156 166.924 89.9172 167.074 89.8505 167.238C89.7839 167.402 89.7504 167.578 89.752 167.755C89.7508 168.025 89.8296 168.289 89.9785 168.514C90.1273 168.738 90.3395 168.914 90.5882 169.018C90.8369 169.122 91.1109 169.15 91.3755 169.099C91.6401 169.047 91.8835 168.918 92.0749 168.728C92.2662 168.538 92.397 168.296 92.4505 168.032C92.504 167.768 92.4779 167.493 92.3756 167.244C92.2732 166.994 92.0992 166.781 91.8755 166.63C91.6518 166.48 91.3884 166.399 91.1188 166.398Z" fill="#C899EF"/>
<path id="Path 40850" d="M99.2585 166.398H99.2324C99.0552 166.399 98.8798 166.435 98.7163 166.503C98.5528 166.572 98.4045 166.672 98.2799 166.798C98.1552 166.924 98.0568 167.074 97.9902 167.238C97.9235 167.402 97.8901 167.578 97.8917 167.755C97.8905 168.025 97.9693 168.289 98.1181 168.514C98.267 168.738 98.4792 168.914 98.7278 169.018C98.9765 169.122 99.2505 169.15 99.5152 169.099C99.7798 169.047 100.023 168.918 100.215 168.728C100.406 168.538 100.537 168.296 100.59 168.032C100.644 167.768 100.618 167.493 100.515 167.244C100.413 166.994 100.239 166.781 100.015 166.63C99.7914 166.48 99.5281 166.399 99.2585 166.398Z" fill="#C899EF"/>
<path id="Path 40851" d="M107.398 166.398H107.372C107.195 166.399 107.019 166.435 106.856 166.503C106.692 166.572 106.544 166.672 106.42 166.798C106.295 166.924 106.196 167.074 106.13 167.238C106.063 167.402 106.03 167.578 106.031 167.755C106.03 168.025 106.109 168.289 106.258 168.514C106.407 168.738 106.619 168.914 106.867 169.018C107.116 169.122 107.39 169.15 107.655 169.099C107.919 169.047 108.163 168.918 108.354 168.728C108.546 168.538 108.676 168.296 108.73 168.032C108.783 167.768 108.757 167.493 108.655 167.244C108.553 166.994 108.378 166.781 108.155 166.63C107.931 166.48 107.668 166.399 107.398 166.398Z" fill="#C899EF"/>
<path id="Path 40852" d="M115.538 166.398H115.512C115.334 166.399 115.159 166.435 114.996 166.503C114.832 166.572 114.684 166.672 114.559 166.798C114.435 166.924 114.336 167.074 114.269 167.238C114.203 167.402 114.169 167.578 114.171 167.755C114.17 168.025 114.249 168.289 114.397 168.514C114.546 168.738 114.758 168.914 115.007 169.018C115.256 169.122 115.53 169.15 115.794 169.099C116.059 169.047 116.303 168.918 116.494 168.728C116.685 168.538 116.816 168.296 116.869 168.032C116.923 167.768 116.897 167.493 116.795 167.244C116.692 166.994 116.518 166.781 116.294 166.63C116.071 166.48 115.807 166.399 115.538 166.398Z" fill="#C899EF"/>
</g>
<path id="Path 40859" d="M116.816 150.121H48.9857C48.6259 150.121 48.2808 150.264 48.0263 150.518C47.7719 150.773 47.6289 151.118 47.6289 151.478C47.6289 151.838 47.7719 152.183 48.0263 152.437C48.2808 152.692 48.6259 152.835 48.9857 152.835H116.816C117.176 152.835 117.521 152.692 117.775 152.437C118.03 152.183 118.173 151.838 118.173 151.478C118.173 151.118 118.03 150.773 117.775 150.518C117.521 150.264 117.176 150.121 116.816 150.121Z" fill="#C899EF"/>
<path id="Path 40860" d="M99.1793 156.904C99.1793 156.544 99.0363 156.199 98.7819 155.944C98.5274 155.69 98.1823 155.547 97.8225 155.547H67.9779C67.7997 155.547 67.6233 155.582 67.4587 155.65C67.2941 155.718 67.1445 155.818 67.0185 155.944C66.8925 156.07 66.7926 156.22 66.7244 156.384C66.6562 156.549 66.6211 156.726 66.6211 156.904C66.6211 157.082 66.6562 157.258 66.7244 157.423C66.7926 157.587 66.8925 157.737 67.0185 157.863C67.1445 157.989 67.2941 158.089 67.4587 158.157C67.6233 158.225 67.7997 158.26 67.9779 158.26H97.8235C98.1831 158.26 98.5278 158.117 98.782 157.862C99.0361 157.608 99.179 157.263 99.1793 156.904Z" fill="#C899EF"/>
<path id="Path 40861" d="M115.943 125.764H114.586V124.408C114.586 124.048 114.443 123.703 114.189 123.448C113.935 123.194 113.589 123.051 113.23 123.051C112.87 123.051 112.525 123.194 112.27 123.448C112.016 123.703 111.873 124.048 111.873 124.408V125.764H110.516C110.156 125.764 109.811 125.907 109.557 126.162C109.302 126.416 109.159 126.761 109.159 127.121C109.159 127.481 109.302 127.826 109.557 128.081C109.811 128.335 110.156 128.478 110.516 128.478H111.873V129.835C111.873 130.195 112.016 130.54 112.27 130.794C112.525 131.049 112.87 131.192 113.23 131.192C113.589 131.192 113.935 131.049 114.189 130.794C114.443 130.54 114.586 130.195 114.586 129.835V128.478H115.943C116.303 128.478 116.648 128.335 116.903 128.081C117.157 127.826 117.3 127.481 117.3 127.121C117.3 126.761 117.157 126.416 116.903 126.162C116.648 125.907 116.303 125.764 115.943 125.764Z" fill="#C899EF"/>
<path id="Path 40862" d="M55.8436 118.827H54.4868V117.47C54.4868 117.11 54.3438 116.765 54.0894 116.511C53.8349 116.256 53.4898 116.113 53.13 116.113C52.7701 116.113 52.425 116.256 52.1705 116.511C51.9161 116.765 51.7731 117.11 51.7731 117.47V118.827H50.4173C50.0575 118.827 49.7124 118.97 49.4579 119.224C49.2035 119.479 49.0605 119.824 49.0605 120.184C49.0605 120.544 49.2035 120.889 49.4579 121.143C49.7124 121.398 50.0575 121.54 50.4173 121.54H51.7742V122.897C51.7742 123.257 51.9171 123.602 52.1715 123.857C52.426 124.111 52.7711 124.254 53.131 124.254C53.4908 124.254 53.8359 124.111 54.0904 123.857C54.3448 123.602 54.4878 123.257 54.4878 122.897V121.54H55.8446C56.204 121.54 56.5487 121.398 56.8029 121.144C57.0571 120.889 57.1999 120.545 57.1999 120.185C57.1999 119.826 57.0571 119.481 56.8029 119.227C56.5487 118.973 56.204 118.83 55.8446 118.83L55.8436 118.827Z" fill="#C899EF"/>
<path id="Path 40863" d="M130.246 76.5067C129.973 76.5063 129.705 76.4236 129.479 76.2692C129.253 76.1149 129.079 75.896 128.979 75.6412L127.514 71.8389C127.39 71.5045 127.403 71.1349 127.55 70.81C127.697 70.4851 127.966 70.231 128.298 70.1026C128.631 69.9743 129.001 69.9821 129.328 70.1243C129.654 70.2664 129.912 70.5316 130.045 70.8623L131.51 74.6576C131.575 74.8238 131.605 75.0012 131.601 75.1794C131.597 75.3576 131.557 75.5331 131.485 75.696C131.412 75.8589 131.308 76.0059 131.179 76.1285C131.05 76.2511 130.897 76.347 130.731 76.4106C130.577 76.4724 130.412 76.5034 130.245 76.5017L130.246 76.5067Z" fill="#9C52D9"/>
<path id="Path 40864" d="M134.924 88.6752C134.65 88.6753 134.382 88.5923 134.156 88.437C133.93 88.2818 133.756 88.0617 133.658 87.8057L131.314 81.7181C131.185 81.3826 131.194 81.0094 131.34 80.6807C131.486 80.3521 131.757 80.0948 132.092 79.9656C132.428 79.8364 132.801 79.8457 133.13 79.9916C133.458 80.1375 133.716 80.408 133.845 80.7435L136.19 86.8321C136.254 86.9984 136.285 87.1757 136.28 87.3538C136.276 87.5319 136.236 87.7074 136.164 87.8702C136.091 88.033 135.988 88.18 135.858 88.3027C135.729 88.4253 135.577 88.5213 135.411 88.5852C135.255 88.644 135.091 88.6745 134.924 88.6752Z" fill="#9C52D9"/>
<path id="Path 40865" d="M138.738 98.5678C138.463 98.5677 138.195 98.4846 137.969 98.3294C137.743 98.1742 137.569 97.9542 137.47 97.6983L136.006 93.9031C135.876 93.5675 135.886 93.1943 136.031 92.8654C136.177 92.5366 136.447 92.279 136.783 92.1495C137.119 92.02 137.492 92.0291 137.821 92.1749C138.149 92.3206 138.407 92.5909 138.536 92.9265L140.001 96.7288C140.08 96.934 140.108 97.1554 140.083 97.3739C140.057 97.5924 139.979 97.8013 139.854 97.9828C139.73 98.1642 139.563 98.3126 139.369 98.4152C139.174 98.5179 138.958 98.5716 138.738 98.5718V98.5678Z" fill="#9C52D9"/>
</g>
</g>
<defs>
<clipPath id="clip0_1083_103628">
<rect width="192.556" height="204" fill="white"/>
</clipPath>
</defs>
</svg>
