<svg xmlns="http://www.w3.org/2000/svg" width="213.759" height="161.691" viewBox="0 0 213.759 161.691">
  <g id="Group_1452" data-name="Group 1452" transform="translate(-843.532 -441.471)" opacity="0.5">
    <g id="football_filed_" data-name="football filed " transform="translate(843.532 441.471)">
      <g id="A_VIP" data-name="A VIP" transform="translate(91.301 18.631)">
        <rect id="Rectangle_398" data-name="Rectangle 398" width="8.388" height="3.44" transform="translate(18.245 15.23)" fill="#e3e3e3"/>
        <path id="Path_717" data-name="Path 717" d="M236.587,55.815H268.67l.58-7.615H236.2Z" transform="translate(-236.2 -48.2)" fill="#e3e3e3"/>
        <rect id="Rectangle_399" data-name="Rectangle 399" width="8.388" height="3.44" transform="translate(6.069 15.23)" fill="#e3e3e3"/>
        <rect id="Rectangle_400" data-name="Rectangle 400" width="8.388" height="4.87" transform="translate(6.069 19.404)" fill="#e3e3e3"/>
        <rect id="Rectangle_401" data-name="Rectangle 401" width="8.388" height="4.87" transform="translate(18.245 19.404)" fill="#e3e3e3"/>
        <path id="Path_718" data-name="Path 718" d="M237.3,69.9l.309,6.069h13.954v-.077H255v.077h13.838l.464-6.069Z" transform="translate(-236.875 -61.512)" fill="#e3e3e3"/>
      </g>
      <g id="A" transform="translate(42.558)">
        <path id="Path_719" data-name="Path 719" d="M339.456,48.2H322.68l-.58,7.615h18.941a46.229,46.229,0,0,1,21.724,5.373l2.938-7.46C364.04,52.8,354.686,48.2,339.456,48.2Z" transform="translate(-240.153 -29.569)" fill="#e3e3e3"/>
        <path id="Path_720" data-name="Path 720" d="M312.3,76.68H307v9.045h29.57A27.992,27.992,0,0,1,348.089,88.2l5.141-13.065A45.535,45.535,0,0,0,331.816,69.8H312.8Z" transform="translate(-230.89 -42.819)" fill="#e3e3e3"/>
        <path id="Path_721" data-name="Path 721" d="M173.034,85.787V76.742h-5.3L167.39,69.9H144.43a45.4,45.4,0,0,0-19.83,4.523l5.8,14.65a27.759,27.759,0,0,1,13.1-3.247h29.532Z" transform="translate(-118.995 -42.881)" fill="#e3e3e3"/>
        <path id="Path_722" data-name="Path 722" d="M321.6,19.821h17.588c15.152,0,24.584,4.523,26.555,5.566l2.474-6.3A121.66,121.66,0,0,0,322.373,3.2Z" transform="translate(-239.846 -1.963)" fill="#e3e3e3"/>
        <path id="Path_723" data-name="Path 723" d="M277.5,17.858h16.273l.812-16.7A137.311,137.311,0,0,0,277.5,0Z" transform="translate(-212.793)" fill="#e3e3e3"/>
        <path id="Path_724" data-name="Path 724" d="M115.4,32.832a46.231,46.231,0,0,1,20.139-4.561h22.922l-.387-7.615H133.718c-.116,0-12.911.812-20.719,5.644l-.387-.657c7.963-4.948,20.989-5.759,21.105-5.759H156.64L155.828,3.3A120.785,120.785,0,0,0,110.1,19.342Z" transform="translate(-110.1 -2.024)" fill="#e3e3e3"/>
        <path id="Path_725" data-name="Path 725" d="M231.112,17.858h16.273V0A130.7,130.7,0,0,0,230.3,1.2Z" transform="translate(-183.838)" fill="#e3e3e3"/>
      </g>
      <g id="CR_" data-name="CR " transform="translate(159.99 17.549)">
        <path id="Path_726" data-name="Path 726" d="M436.3,119.077a29.246,29.246,0,0,1,4.87,6.958l11.751-4.677a46.739,46.739,0,0,0-7.5-11.558Z" transform="translate(-427.641 -84.907)" fill="#e3e3e3"/>
        <path id="Path_727" data-name="Path 727" d="M420.241,84.6,415.1,97.588a28.425,28.425,0,0,1,7.654,5.45l9.161-9.277A46.359,46.359,0,0,0,420.241,84.6Z" transform="translate(-414.636 -69.447)" fill="#e3e3e3"/>
        <path id="Path_728" data-name="Path 728" d="M461.451,141.5,449.7,146.177a28.313,28.313,0,0,1,2.513,10.243h12.872A44.959,44.959,0,0,0,461.451,141.5Z" transform="translate(-435.862 -104.353)" fill="#e3e3e3"/>
        <path id="Path_729" data-name="Path 729" d="M429.9,308.22l-8.62-8.62a28.085,28.085,0,0,1-7.383,4.948l5.412,11.6A46.238,46.238,0,0,0,429.9,308.22Z" transform="translate(-413.9 -201.341)" fill="#e3e3e3"/>
        <path id="Path_730" data-name="Path 730" d="M491.248,225.54a44.531,44.531,0,0,1-.348,5.6l22.458-.425c.425-1.623.734-3.015.966-4.213a70.331,70.331,0,0,0,.58-8.079c0-.309-.039-.618-.039-.928H491.248Z" transform="translate(-461.136 -150.976)" fill="#e3e3e3"/>
        <path id="Path_731" data-name="Path 731" d="M469.054,102.99,485.327,96.5a87.252,87.252,0,0,0-13.22-16.2L461.4,91.162A48.128,48.128,0,0,1,469.054,102.99Z" transform="translate(-443.039 -66.81)" fill="#e3e3e3"/>
        <path id="Path_732" data-name="Path 732" d="M491.6,182.1c.039.812.077,1.662.077,2.474v10.475H515.3a72,72,0,0,0-1.74-12.949Z" transform="translate(-461.566 -129.26)" fill="#e3e3e3"/>
        <path id="Path_733" data-name="Path 733" d="M465.576,294.9A46.887,46.887,0,0,1,458,305.3l10.939,10.939a88.854,88.854,0,0,0,13.8-15.655Z" transform="translate(-440.953 -198.457)" fill="#e3e3e3"/>
        <path id="Path_734" data-name="Path 734" d="M485.611,145.624h21.8a75.451,75.451,0,0,0-9.122-21.724L481.9,130.433A46.364,46.364,0,0,1,485.611,145.624Z" transform="translate(-455.615 -93.556)" fill="#e3e3e3"/>
        <path id="Path_735" data-name="Path 735" d="M450.364,288.165,438.691,284.3a28.792,28.792,0,0,1-4.291,5.373l8.581,8.581A44.283,44.283,0,0,0,450.364,288.165Z" transform="translate(-426.476 -191.955)" fill="#e3e3e3"/>
        <path id="Path_736" data-name="Path 736" d="M462.873,254.9l-12.717.232a27.182,27.182,0,0,1-3.556,10.475l11.635,3.827A45.086,45.086,0,0,0,462.873,254.9Z" transform="translate(-433.96 -173.919)" fill="#e3e3e3"/>
        <path id="Path_737" data-name="Path 737" d="M483.277,254.125a46.261,46.261,0,0,1-4.677,14.843l17.24,5.682a74.333,74.333,0,0,0,9.78-20.951Z" transform="translate(-453.591 -173.183)" fill="#e3e3e3"/>
        <path id="Path_738" data-name="Path 738" d="M439.585,323.3a47.28,47.28,0,0,1-10.785,8.117l6.494,13.877A103.6,103.6,0,0,0,450.485,334.2Z" transform="translate(-423.041 -215.88)" fill="#e3e3e3"/>
        <path id="Path_739" data-name="Path 739" d="M469,225.54V217.5H456.055v11.132a22.383,22.383,0,0,1-.155,2.783l12.717-.232A39.182,39.182,0,0,0,469,225.54Z" transform="translate(-439.665 -150.976)" fill="#e3e3e3"/>
        <path id="Path_740" data-name="Path 740" d="M469.249,184.574c0-.812-.039-1.662-.077-2.474H456.3v12.949h12.949Z" transform="translate(-439.911 -129.26)" fill="#e3e3e3"/>
        <path id="Path_741" data-name="Path 741" d="M429.1,59.818a47.741,47.741,0,0,1,11.944,9.354l10.669-10.823A101.524,101.524,0,0,0,434.782,45.4Z" transform="translate(-423.225 -45.4)" fill="#e3e3e3"/>
      </g>
      <g id="B" transform="translate(41.94 120.331)">
        <path id="Path_742" data-name="Path 742" d="M300.394,358.9H289.3v9.045h11.635Z" transform="translate(-219.413 -340.5)" fill="#e3e3e3"/>
        <path id="Path_743" data-name="Path 743" d="M300.7,334.648V329.7H289.3v10.514h11.4Z" transform="translate(-219.413 -322.588)" fill="#e3e3e3"/>
        <rect id="Rectangle_402" data-name="Rectangle 402" width="8.62" height="5.566" transform="translate(82.063 12.06)" fill="#e3e3e3"/>
        <path id="Path_744" data-name="Path 744" d="M345.1,342.5v5.218l.077.348h10.359l-1.469-5.566Z" transform="translate(-253.644 -330.44)" fill="#e3e3e3"/>
        <rect id="Rectangle_403" data-name="Rectangle 403" width="8.736" height="7.847" transform="translate(60.378 9.78)" fill="#e3e3e3"/>
        <rect id="Rectangle_404" data-name="Rectangle 404" width="8.736" height="9.045" transform="translate(60.378 18.399)" fill="#e3e3e3"/>
        <path id="Path_748" data-name="Path 748" d="M244.6,329.7H233.2v10.514h11.4Z" transform="translate(-184.998 -322.588)" fill="#e3e3e3"/>
        <path id="Path_750" data-name="Path 750" d="M244.235,367.945V358.9H233.141l-.541,9.045Z" transform="translate(-184.63 -340.5)" fill="#e3e3e3"/>
        <rect id="Rectangle_405" data-name="Rectangle 405" width="8.62" height="5.566" transform="translate(38.809 12.06)" fill="#e3e3e3"/>
        <path id="Path_753" data-name="Path 753" d="M329.161,358.9H320l.5,9.045h10.591Z" transform="translate(-238.246 -340.5)" fill="#e3e3e3"/>
        <path id="Path_759" data-name="Path 759" d="M214.394,358.9h-9.161l-1.933,9.045h10.591Z" transform="translate(-166.656 -340.5)" fill="#e3e3e3"/>
        <path id="Path_760" data-name="Path 760" d="M190.437,347.718V342.5h-8.968L180,348.066h10.359Z" transform="translate(-152.362 -330.44)" fill="#e3e3e3"/>
        <g id="Group_495" data-name="Group 495">
          <path id="Path_745" data-name="Path 745" d="M300.974,384.2H289.3v13.181h12.408Z" transform="translate(-219.413 -356.021)" fill="#e3e3e3"/>
          <g id="Group_489" data-name="Group 489" transform="translate(6.339)">
            <path id="Path_746" data-name="Path 746" d="M143.647,314.315a27.669,27.669,0,0,1-12.6-3.015L124.9,324.443a45.381,45.381,0,0,0,19.714,4.445h.812l1.662-6.339h6.146v-7.576l-.039-.7h-9.548Z" transform="translate(-124.9 -311.3)" fill="#e3e3e3"/>
            <path id="Path_747" data-name="Path 747" d="M200.1,319.1v.039h0v8.233h12.021v-4.948H224.3V319.1Z" transform="translate(-171.032 -316.085)" fill="#e3e3e3"/>
          </g>
          <path id="Path_749" data-name="Path 749" d="M243.008,397.381V384.2H231.334l-.734,13.181Z" transform="translate(-183.403 -356.021)" fill="#e3e3e3"/>
          <path id="Path_751" data-name="Path 751" d="M273.436,384.2H264.7v13.181h8.736Z" transform="translate(-204.322 -356.021)" fill="#e3e3e3"/>
          <path id="Path_752" data-name="Path 752" d="M209.19,384.2H198.483L195.7,397.111c.309.077.58.193.889.271h11.828Z" transform="translate(-161.994 -356.021)" fill="#e3e3e3"/>
          <path id="Path_754" data-name="Path 754" d="M380.682,352.776l-3.556-7.576a46.128,46.128,0,0,1-21.569,5.3H345.7l1.933,9.045C369.782,359.966,379.175,353.9,380.682,352.776Z" transform="translate(-254.012 -332.096)" fill="#e3e3e3"/>
          <path id="Path_755" data-name="Path 755" d="M386.932,372.3l-2.628-5.6c-1.933,1.43-11.287,7.19-33.2,6.8l2.744,12.795A141.2,141.2,0,0,0,386.932,372.3Z" transform="translate(-257.325 -345.285)" fill="#e3e3e3"/>
          <path id="Path_756" data-name="Path 756" d="M332.107,384.2H321.4l.734,13.181h12.253c.193-.039.348-.116.541-.155Z" transform="translate(-239.105 -356.021)" fill="#e3e3e3"/>
          <path id="Path_757" data-name="Path 757" d="M150.537,351.723h-11.79a46.371,46.371,0,0,1-20.023-4.523l-3.324,7.112c14.031,7.5,32.74,6.455,32.933,6.455h.232Z" transform="translate(-112.733 -333.323)" fill="#e3e3e3"/>
          <path id="Path_758" data-name="Path 758" d="M144.216,373.833h-.039c-.039,0-1.005.039-2.59.039-5.682,0-19.6-.657-30.691-6.571l-2.4,5.141a141.158,141.158,0,0,0,33.011,14.07Z" transform="translate(-108.5 -345.654)" fill="#e3e3e3"/>
          <g id="Group_490" data-name="Group 490" transform="translate(69.887 0.734)">
            <path id="Path_761" data-name="Path 761" d="M313.536,319.1H289.3v3.324h12.176v4.948h12.06V319.1Z" transform="translate(-289.3 -316.819)" fill="#e3e3e3"/>
            <path id="Path_762" data-name="Path 762" d="M376.4,313.2a27.722,27.722,0,0,1-11.055,2.281h-11.4v.116h0l-.039,8.156h6.146l1.662,6.339a45.275,45.275,0,0,0,20.139-5.218Z" transform="translate(-328.929 -313.2)" fill="#e3e3e3"/>
          </g>
        </g>
      </g>
      <g id="CL" transform="translate(0 17.742)">
        <path id="Path_763" data-name="Path 763" d="M80.14,298.362l10.514-10.514a28.8,28.8,0,0,1-3.672-4.948L72.1,287.809A44.866,44.866,0,0,0,80.14,298.362Z" transform="translate(-44.23 -191.289)" fill="#e3e3e3"/>
        <path id="Path_764" data-name="Path 764" d="M104.775,297.2,94.3,307.675a45.83,45.83,0,0,0,11.132,7.808l6.146-13.181A29.3,29.3,0,0,1,104.775,297.2Z" transform="translate(-57.849 -200.062)" fill="#e3e3e3"/>
        <path id="Path_765" data-name="Path 765" d="M78.191,264.943a28.1,28.1,0,0,1-3.247-9.934L58.4,254.7a45.023,45.023,0,0,0,4.909,15.153Z" transform="translate(-35.826 -173.99)" fill="#e3e3e3"/>
        <path id="Path_766" data-name="Path 766" d="M52.251,90.464,42.7,80.8A88.988,88.988,0,0,0,29.6,96.919l14.379,5.721A45.819,45.819,0,0,1,52.251,90.464Z" transform="translate(-18.158 -67.31)" fill="#e3e3e3"/>
        <path id="Path_767" data-name="Path 767" d="M57.3,225.54a44.99,44.99,0,0,0,.348,5.6l16.544.309c-.077-.928-.155-1.894-.155-2.822V217.5H57.3Z" transform="translate(-35.151 -151.169)" fill="#e3e3e3"/>
        <path id="Path_768" data-name="Path 768" d="M21.376,225.54V217.5H.039c0,.309-.039.618-.039.928a69.093,69.093,0,0,0,.58,8.079c.232,1.2.541,2.628.966,4.213l20.139.387A52.548,52.548,0,0,1,21.376,225.54Z" transform="translate(0 -151.169)" fill="#e3e3e3"/>
        <path id="Path_769" data-name="Path 769" d="M46.03,296.3,30.8,301.325A85.916,85.916,0,0,0,44.445,316.9l9.78-9.78A46.976,46.976,0,0,1,46.03,296.3Z" transform="translate(-18.894 -199.509)" fill="#e3e3e3"/>
        <path id="Path_770" data-name="Path 770" d="M90.9,91.445l11.094,11.248a27.922,27.922,0,0,1,7.538-5.875l-.5.193L103.269,82.4A46.367,46.367,0,0,0,90.9,91.445Z" transform="translate(-55.763 -68.291)" fill="#e3e3e3"/>
        <path id="Path_771" data-name="Path 771" d="M57.3,184.574v10.475H74.037V182.1H57.377C57.3,182.912,57.3,183.724,57.3,184.574Z" transform="translate(-35.151 -129.453)" fill="#e3e3e3"/>
        <path id="Path_772" data-name="Path 772" d="M61.5,119.863a45.518,45.518,0,0,0-3.9,15.578H74.26a28.054,28.054,0,0,1,6.8-16.892L69.969,107.3a46.7,46.7,0,0,0-8.117,11.906l14.457,5.759-.271.7Z" transform="translate(-35.335 -83.566)" fill="#e3e3e3"/>
        <path id="Path_773" data-name="Path 773" d="M86.91,59.313,81.615,45.9A102.177,102.177,0,0,0,64.8,58.849l9.509,9.664A48.463,48.463,0,0,1,86.91,59.313Z" transform="translate(-39.752 -45.9)" fill="#e3e3e3"/>
        <path id="Path_774" data-name="Path 774" d="M28.6,129.96,14.145,124.2A74.579,74.579,0,0,0,5.1,145.808H24.62A46.438,46.438,0,0,1,28.6,129.96Z" transform="translate(-3.129 -93.934)" fill="#e3e3e3"/>
        <path id="Path_775" data-name="Path 775" d="M67.6,335.418a100.679,100.679,0,0,0,15.114,11.094l1.971-4.213.773-1.624.077-.193.193-.464.309-.7,2.667-5.759A46.639,46.639,0,0,1,77.341,325.6Z" transform="translate(-41.47 -217.484)" fill="#e3e3e3"/>
        <path id="Path_776" data-name="Path 776" d="M21.437,184.574c0-.812.039-1.662.077-2.474H1.839A72,72,0,0,0,.1,195.049H21.437Z" transform="translate(-0.061 -129.453)" fill="#e3e3e3"/>
        <path id="Path_777" data-name="Path 777" d="M24.562,254.087,4.5,253.7a75.052,75.052,0,0,0,9.7,20.835l15.307-5.064A46.956,46.956,0,0,1,24.562,254.087Z" transform="translate(-2.761 -173.376)" fill="#e3e3e3"/>
      </g>
      <path id="text" d="M61.984,74.666q-.459-.006-.788-.007V69.971q.663-.038,1.559-.037a1.946,1.946,0,0,1,1.165.3,1.01,1.01,0,0,1,.407.863,1.048,1.048,0,0,1-.71,1.053v.013a1.029,1.029,0,0,1,.608.367,1.057,1.057,0,0,1,.234.682,1.3,1.3,0,0,1-.431,1,2.1,2.1,0,0,1-1.464.458Zm.116-2.072v1.328q.336.021.5.021a1.009,1.009,0,0,0,.666-.2.625.625,0,0,0,.224-.506q0-.653-1-.652Q62.2,72.587,62.1,72.594Zm0-1.923V71.9c.075,0,.2.007.37.007q.9,0,.9-.669,0-.585-.758-.585Q62.391,70.657,62.1,70.671ZM119.43,36.92a2.421,2.421,0,0,1-.469-1.566,2.683,2.683,0,0,1,.588-1.828,2.209,2.209,0,0,1,1.763-.714,3.493,3.493,0,0,1,1,.14l-.125.836a2.5,2.5,0,0,0-.918-.166,1.179,1.179,0,0,0-.988.445,1.8,1.8,0,0,0-.326,1.135q0,1.586,1.369,1.586a1.983,1.983,0,0,0,.89-.2l.14.8a3.438,3.438,0,0,1-1.223.214A2.063,2.063,0,0,1,119.43,36.92ZM.469,36.92A2.425,2.425,0,0,1,0,35.354a2.681,2.681,0,0,1,.588-1.828,2.207,2.207,0,0,1,1.763-.714,3.5,3.5,0,0,1,1,.14l-.125.836a2.5,2.5,0,0,0-.917-.166,1.178,1.178,0,0,0-.988.445A1.8,1.8,0,0,0,1,35.2q0,1.586,1.369,1.586a1.986,1.986,0,0,0,.89-.2l.139.8a3.438,3.438,0,0,1-1.223.214A2.064,2.064,0,0,1,.469,36.92Zm124.9.632-1.267-1.94h-.078v1.94h-.9V32.856q.492-.031,1.348-.031,1.706,0,1.706,1.325a1.246,1.246,0,0,1-.333.873,1.419,1.419,0,0,1-.822.435c.176.231.3.4.377.513l1.091,1.58Zm-1.345-3.965v1.356a3.128,3.128,0,0,0,.326.013.978.978,0,0,0,.642-.193.64.64,0,0,0,.238-.523q0-.677-.85-.676A2.139,2.139,0,0,0,124.026,33.587ZM4.162,37.551V32.856h.9v3.9H6.591v.791ZM63.895,4.695l-.319-.962H61.8l-.33.962h-.91L62.176,0h1.067L64.9,4.695ZM62.488,1.621l-.479,1.4h1.335l-.479-1.4q-.122-.371-.187-.649h-.007Q62.56,1.39,62.488,1.621Z" transform="translate(43.959 45.149)" fill="#e3e3e3"/>
      <g id="football_filed" data-name="football filed" transform="translate(59.953 53.807)">
        <path id="Path_704" data-name="Path 704" d="M154.1,139.2v58.368h93.543V139.2H154.1Zm91.649,16.235v40.7h-89.91V140.476H245.71v14.959Z" transform="translate(-154.1 -139.2)" fill="#2ebc26"/>
        <path id="Path_705" data-name="Path 705" d="M384.151,147.417V145.6H381.6A2.969,2.969,0,0,0,384.151,147.417Z" transform="translate(-293.662 -143.126)" fill="#2ebc26"/>
        <path id="Path_706" data-name="Path 706" d="M164.113,145.5H161.6v1.817A2.9,2.9,0,0,0,164.113,145.5Z" transform="translate(-158.701 -143.065)" fill="#2ebc26"/>
        <path id="Path_707" data-name="Path 707" d="M319.309,195.867V185.082H304.736V177.66a6.287,6.287,0,0,1-3.595-5.489,6.36,6.36,0,0,1,3.595-5.489v-7.422h14.573V148.476a4.107,4.107,0,0,1-3.749-2.976H275.9v16.7a10.225,10.225,0,0,1,0,20.41v16.2h39.659A4.08,4.08,0,0,1,319.309,195.867Z" transform="translate(-228.819 -143.065)" fill="#2ebc26"/>
        <path id="Path_708" data-name="Path 708" d="M346.535,212.072V203.8a4.73,4.73,0,0,0,0,8.272Z" transform="translate(-270.657 -178.829)" fill="#2ebc26"/>
        <path id="Path_709" data-name="Path 709" d="M284.327,200.745A9.049,9.049,0,0,0,275.9,191.7v18.129A9.112,9.112,0,0,0,284.327,200.745Z" transform="translate(-228.819 -171.406)" fill="#2ebc26"/>
        <path id="Path_710" data-name="Path 710" d="M161.6,278.8v1.817h2.513A3.013,3.013,0,0,0,161.6,278.8Z" transform="translate(-158.701 -224.839)" fill="#2ebc26"/>
        <path id="Path_711" data-name="Path 711" d="M165.311,198.782h39.311v-16.2a10.256,10.256,0,0,1,0-20.487V145.4H165.311a4.057,4.057,0,0,1-3.711,2.976v10.785h14.573v7.422a5.955,5.955,0,0,1,0,10.9V184.9H161.6v10.823A4.276,4.276,0,0,1,165.311,198.782Z" transform="translate(-158.701 -143.003)" fill="#2ebc26"/>
        <path id="Path_712" data-name="Path 712" d="M250.7,200.745a9.107,9.107,0,0,0,8.581,9.084V191.7A9.072,9.072,0,0,0,250.7,200.745Z" transform="translate(-213.36 -171.406)" fill="#2ebc26"/>
        <path id="Path_713" data-name="Path 713" d="M381.6,280.617h2.551V278.8A2.955,2.955,0,0,0,381.6,280.617Z" transform="translate(-293.662 -224.839)" fill="#2ebc26"/>
        <path id="Path_714" data-name="Path 714" d="M353.4,207.663h13.452V203.1h-7.77V188.723h7.77V184.2H353.4Z" transform="translate(-276.362 -166.806)" fill="#2ebc26"/>
        <rect id="Rectangle_396" data-name="Rectangle 396" width="6.61" height="12.06" transform="translate(83.88 23.077)" fill="#2ebc26"/>
        <path id="Path_715" data-name="Path 715" d="M199.4,203.9v8.195a4.7,4.7,0,0,0,0-8.195Z" transform="translate(-181.89 -178.891)" fill="#2ebc26"/>
        <rect id="Rectangle_397" data-name="Rectangle 397" width="6.61" height="12.06" transform="translate(2.899 23.077)" fill="#2ebc26"/>
        <path id="Path_716" data-name="Path 716" d="M175.052,184.2H161.6v4.523h7.77V203.1H161.6v4.561h13.452Z" transform="translate(-158.701 -166.806)" fill="#2ebc26"/>
      </g>
    </g>
  </g>
</svg>
