<svg width="128" height="40" viewBox="0 0 128 40" fill="none" xmlns="http://www.w3.org/2000/svg">
<rect x="0.5" y="0.5" width="127" height="39" rx="3.5" fill="#F7F7FC"/>
<rect x="0.5" y="0.5" width="127" height="39" rx="3.5" stroke="#F2F4F7"/>
<path d="M90.1209 14.4365L85.9753 30.2636L85.9658 30.2995H89.1944L93.355 14.4365H90.1209Z" fill="#40444C"/>
<path d="M38.8215 23.4441C38.3374 23.6825 37.8046 23.8056 37.2649 23.8036C36.1021 23.8036 35.4423 23.6179 35.3706 22.6781V22.6148C35.3706 22.5775 35.3664 22.5445 35.3664 22.5009V19.764L35.3706 19.4418V17.5124H35.3664V16.6915L35.3706 16.3666V14.504L32.4866 14.8845C34.4372 14.5068 35.5563 12.9636 35.5563 11.4252V10.4778H32.3157V14.9091L32.1328 14.9605V23.167C32.2397 25.4727 33.7591 26.8429 36.252 26.8429C37.1333 26.8429 38.1033 26.6425 38.8461 26.3055L38.863 26.2985V23.4195L38.8215 23.4441Z" fill="#40444C"/>
<path d="M39.3307 13.8398L30.2363 15.2417V17.5474L39.3307 16.1456V13.8398Z" fill="#40444C"/>
<path d="M39.3307 17.2134L30.2363 18.6152V20.8183L39.3307 19.4157V17.2134Z" fill="#40444C"/>
<path d="M49.5374 18.2742C49.4087 15.7125 47.8077 14.1946 45.1995 14.1946C43.6998 14.1946 42.464 14.7734 41.6248 15.87C40.7856 16.9666 40.3467 18.5697 40.3467 20.5181C40.3467 22.4665 40.7884 24.0744 41.6248 25.1668C42.4611 26.2592 43.6998 26.8423 45.1995 26.8423C47.8077 26.8423 49.4087 25.3166 49.5374 22.7415V26.601H52.7731V14.4647L49.5374 14.9641V18.2742ZM49.7063 20.5209C49.7063 22.79 48.5147 24.2559 46.671 24.2559C44.7718 24.2559 43.6358 22.8597 43.6358 20.5209C43.6337 18.1687 44.7683 16.7619 46.6689 16.7619C47.5932 16.7619 48.3655 17.1221 48.9022 17.803C49.4263 18.4684 49.7041 19.4074 49.7041 20.5188L49.7063 20.5209Z" fill="#40444C"/>
<path d="M62.2289 14.1951C59.6193 14.1951 58.0176 15.7137 57.891 18.2783V10.9307L54.6504 11.4308V26.6016H57.891V22.7406C58.0176 25.3193 59.6193 26.8464 62.2289 26.8464C65.2824 26.8464 67.1056 24.4822 67.1056 20.5221C67.1056 16.562 65.2824 14.1951 62.2289 14.1951ZM60.7574 24.2536C58.9131 24.2536 57.7222 22.7878 57.7222 20.5186C57.7222 19.4073 57.9993 18.4682 58.5241 17.8014C59.0608 17.1205 59.8331 16.7604 60.7574 16.7604C62.6566 16.7604 63.7926 18.1672 63.7926 20.5186C63.7926 22.8574 62.658 24.2536 60.7574 24.2536Z" fill="#40444C"/>
<path d="M75.9281 14.1951C73.3185 14.1951 71.7175 15.7137 71.5902 18.2783V10.9307L68.3496 11.4308V26.6016H71.5902V22.7406C71.7175 25.3193 73.3185 26.8464 75.9281 26.8464C78.9816 26.8464 80.8049 24.4822 80.8049 20.5221C80.8049 16.562 78.9816 14.1951 75.9281 14.1951ZM74.4566 24.2536C72.6129 24.2536 71.4214 22.7878 71.4214 20.5186C71.4214 19.4073 71.6985 18.4682 72.2232 17.8014C72.7599 17.1205 73.5323 16.7604 74.4566 16.7604C76.3558 16.7604 77.4918 18.1672 77.4918 20.5186C77.4918 22.8574 76.3572 24.2536 74.4566 24.2536Z" fill="#40444C"/>
<path d="M80.8145 14.4365H84.2745L87.0856 26.5792H83.9835L80.8145 14.4365Z" fill="#40444C"/>
</svg>
