<svg width="128" height="40" viewBox="0 0 128 40" fill="none" xmlns="http://www.w3.org/2000/svg">
<g id="Payment method icon">
<rect x="0.5" y="0.5" width="127" height="39" rx="3.5" fill="#F7F7FC"/>
<rect x="0.5" y="0.5" width="127" height="39" rx="3.5" stroke="#F2F4F7"/>
<path id="visa-logo" fill-rule="evenodd" clip-rule="evenodd" d="M50.698 28.8598H45.9563L42.4006 14.8959C42.2318 14.2536 41.8735 13.6857 41.3464 13.4181C40.0309 12.7455 38.5813 12.2102 37 11.9402V11.4026H44.6385C45.6927 11.4026 46.4834 12.2102 46.6152 13.1481L48.4601 23.2207L53.1995 11.4026H57.8094L50.698 28.8598ZM60.443 28.8598H55.9648L59.6523 11.4026H64.1305L60.443 28.8598ZM69.9289 16.2388C70.0607 15.2986 70.8513 14.7609 71.7738 14.7609C73.2234 14.626 74.8024 14.8959 76.1202 15.5662L76.9108 11.8076C75.593 11.27 74.1435 11 72.828 11C68.4816 11 65.319 13.4181 65.319 16.7741C65.319 19.3271 67.5592 20.6677 69.1405 21.4752C70.8513 22.2805 71.5102 22.8181 71.3785 23.6234C71.3785 24.8312 70.0607 25.3688 68.7452 25.3688C67.1639 25.3688 65.5825 24.9662 64.1353 24.2936L63.3446 28.0546C64.9259 28.7248 66.6367 28.9948 68.2181 28.9948C73.0916 29.1275 76.1202 26.7117 76.1202 23.0857C76.1202 18.5196 69.9289 18.2519 69.9289 16.2388ZM91.7915 28.8598L88.2358 11.4026H84.4165C83.6258 11.4026 82.8352 11.9402 82.5716 12.7454L75.9873 28.8598H80.5972L81.5174 26.309H87.1815L87.7086 28.8598H91.7915ZM85.072 16.1037L86.3875 22.683H82.7L85.072 16.1037Z" fill="#172B85"/>
</g>
</svg>
